<svg xmlns="http://www.w3.org/2000/svg" viewBox="0 0 785.2 753.9"><path fill="#CB484D" fill-rule="evenodd" d="M200.61 99.62Q199.47 97.53 199.47 95.85Q199.47 93.09 200.89 88.84Q202.27 84.71 204.57 79.96Q209.86 69.51 217.80 58.78Q225.74 48.05 235.25 38.46Q244.77 28.87 254.59 21.91Q255.46 21.23 256.70 20.65Q258.09 20.00 259.57 20.00Q261.78 20.00 263.52 21.83Q265.05 23.44 265.89 25.63Q266.72 27.81 266.72 29.40Q266.72 30.11 266.02 31.78Q265.09 34.00 263.32 34.00Q262.14 34.00 261.17 32.34L260.89 31.92Q260.83 31.82 260.78 31.71Q260.47 31.45 260.32 31.45L260.15 31.45Q251.92 35.11 244.47 41.77Q236.82 48.59 230.37 56.76Q223.89 64.94 219.06 72.90Q217.01 76.27 215.30 79.25Q218.34 76.62 221.84 74.10Q229.24 68.76 237.47 65.32Q245.81 61.85 253.57 61.85Q259.59 61.85 262.72 64.39Q265.21 66.41 266.25 68.61Q271.45 67.81 276.40 67.33Q281.81 66.80 285.96 66.50Q290.13 66.20 291.97 66.20Q292.95 66.20 294.82 66.88Q296.84 67.61 297.23 68.73Q299.24 66.47 301.61 64.36Q306.66 59.84 311.42 57.08Q313.41 55.92 316.25 55.35Q319.00 54.80 321.52 54.80L323.32 54.80Q324.44 54.80 325.28 55.18Q329.48 56.33 331.58 58.78Q333.77 61.32 333.77 64.65Q333.77 69.39 330.62 72.54Q327.66 75.50 323.30 77.32Q319.07 79.10 314.75 80.02Q310.50 80.93 307.43 81.24Q306.30 81.40 305.25 81.40L303.22 81.40Q302.13 81.40 300.96 81.32Q300.35 81.28 299.83 81.22Q299.11 82.43 298.56 83.64Q297.87 85.15 297.60 86.50Q297.58 86.58 297.56 86.66Q297.47 86.91 297.47 87.15L297.47 88.05Q297.47 90.32 299.45 92.11Q301.48 93.95 306.97 93.95Q312.73 93.95 319.11 91.49Q325.59 88.98 332.01 84.93Q333.50 83.98 334.97 83.01Q333.97 82.10 333.41 80.98Q332.82 79.81 332.82 78.45Q332.82 76.81 333.63 75.12Q334.35 73.59 335.17 72.44Q335.19 72.41 335.22 72.38Q336.96 70.25 339.07 70.25Q341.90 70.25 342.73 73.91L343.65 76.84Q344.00 76.57 344.36 76.30Q350.25 71.74 354.87 67.72Q354.96 67.64 355.06 67.59Q355.70 67.20 356.25 67.05Q362.03 62.04 366.29 57.79Q367.40 54.62 369.51 51.60Q371.74 48.41 374.86 46.26Q378.12 44.00 381.97 44.00Q383.19 44.00 384.24 44.26Q385.16 44.49 386.23 44.80Q386.28 44.81 386.32 44.83Q388.82 45.74 388.82 48.60Q388.82 50.64 387.02 52.44Q385.12 54.34 381.76 53.78Q381.66 53.77 381.56 53.73Q381.31 53.65 381.00 53.65L380.17 53.65Q378.56 53.65 377.51 54.24Q376.35 54.88 375.30 56.06Q375.26 56.11 375.22 56.15Q373.00 58.24 372.31 62.89Q371.57 67.90 371.57 73.95Q371.57 76.78 371.65 79.54Q371.72 82.33 371.72 85.20Q371.72 87.92 371.65 90.56Q371.59 92.47 371.35 94.27Q375.77 94.29 380.30 93.66Q385.52 92.94 389.84 91.06Q395.46 88.55 400.72 85.29Q406.00 82.02 411.64 77.86Q413.41 76.54 416.53 73.86L421.48 69.66Q421.60 69.56 421.74 69.49Q422.04 69.34 422.46 69.27Q424.15 67.33 425.97 65.40Q424.25 65.29 422.58 65.04Q422.54 65.03 422.50 65.02Q419.98 64.48 418.58 62.89Q417.12 61.24 417.12 59.25Q417.12 56.95 418.84 55.66Q420.49 54.43 422.83 54.82Q425.65 55.26 428.92 55.63Q431.94 55.98 435.35 56.26Q439.20 52.56 442.92 49.34L449.54 43.62Q449.36 41.64 451.23 39.25Q453.30 36.60 456.89 34.97Q456.95 34.94 457.01 34.92Q458.11 34.55 459.07 34.55Q461.43 34.55 463.85 35.55Q466.82 36.78 466.82 39.15Q466.82 40.71 464.68 43.03Q462.79 45.08 461.87 45.65Q459.66 47.13 455.06 50.61Q451.59 53.24 447.70 56.59Q452.40 56.56 455.66 56.45Q460.05 56.30 463.62 56.00Q463.67 56.00 463.72 56.00L464.02 56.00Q466.38 56.00 466.38 58.35Q466.38 61.19 463.54 61.44Q463.50 61.45 463.46 61.45Q458.32 61.60 451.67 62.85Q445.09 64.09 438.65 64.84Q433.47 69.76 428.92 74.89Q424.27 80.13 421.40 84.69Q418.67 89.02 418.67 91.95Q418.67 93.11 419.16 93.91Q420.63 96.35 426.82 96.35Q433.33 96.35 442.52 93.15Q443.44 92.69 444.43 92.31Q445.39 91.95 446.40 91.51Q453.04 88.56 459.53 84.06Q466.06 79.53 471.55 74.94Q472.39 74.10 473.26 73.59Q473.87 73.22 474.36 72.73Q474.43 72.65 474.52 72.59Q475.53 71.87 477.44 70.26Q477.63 70.10 477.86 70.02L477.88 70.01Q477.87 69.96 477.87 69.90Q477.87 68.24 479.20 66.69Q480.06 65.52 481.59 64.30Q483.20 63.04 485.21 62.37Q486.31 62.00 487.42 62.00Q489.48 62.00 491.74 62.92Q494.57 64.08 494.57 66.75Q494.57 68.27 493.52 69.53Q492.66 70.56 491.87 71.00Q489.53 72.77 485.52 76.41Q481.48 80.09 478.69 83.46Q473.72 89.85 473.72 92.85Q473.72 93.71 474.49 94.29Q475.42 95.00 478.27 95.00Q483.31 95.00 488.29 93.34Q493.37 91.65 497.64 89.44Q501.16 87.68 504.31 85.48Q507.50 83.26 510.62 80.88L516.98 75.72L523.50 70.39Q523.69 70.24 523.91 70.17Q524.32 70.03 524.64 69.95Q527.07 67.03 530.06 64.36Q535.11 59.84 539.87 57.08Q541.86 55.92 544.70 55.35Q547.45 54.80 549.97 54.80L551.77 54.80Q552.89 54.80 553.73 55.18Q557.93 56.33 560.03 58.78Q562.22 61.32 562.22 64.65Q562.22 69.39 559.07 72.54Q556.11 75.50 551.75 77.32Q547.52 79.10 543.20 80.02Q538.95 80.93 535.88 81.24Q534.75 81.40 533.70 81.40L531.67 81.40Q530.58 81.40 529.41 81.32Q528.80 81.28 528.28 81.22Q527.56 82.43 527.01 83.64Q526.32 85.15 526.05 86.50Q526.03 86.58 526.01 86.66Q525.92 86.91 525.92 87.15L525.92 88.05Q525.92 90.32 527.90 92.11Q529.93 93.95 535.42 93.95Q541.18 93.95 547.56 91.49Q554.04 88.98 560.46 84.93Q566.93 80.83 572.81 76.30Q578.70 71.74 583.32 67.72Q583.41 67.64 583.51 67.59Q584.56 66.95 585.38 66.95Q588.02 66.95 588.02 69.45Q588.02 70.63 587.17 71.72Q585.42 74.25 581.34 77.72Q577.34 81.12 572.58 84.67Q567.83 88.21 563.90 90.85Q559.97 93.50 558.44 94.41Q558.40 94.44 558.36 94.46Q553.78 96.75 548.30 98.65Q542.69 100.60 537.07 100.60Q533.59 100.60 530.11 99.57Q526.57 98.53 523.53 96.13Q520.58 93.84 519.25 91.00Q517.92 88.19 517.92 85.05Q517.92 84.12 518.03 83.18Q517.02 84.03 515.92 84.93Q511.74 88.35 506.58 91.69Q501.40 95.04 495.92 97.48Q492.95 98.88 487.74 100.19Q482.49 101.50 477.52 101.50Q473.02 101.50 469.38 99.72Q465.27 97.71 465.27 92.25Q465.27 90.07 465.77 87.95Q461.61 91.05 456.83 93.96Q450.79 97.63 444.80 99.78Q441.75 100.85 435.99 102.29Q430.14 103.75 424.27 103.75Q418.87 103.75 414.54 101.59Q409.77 99.20 409.77 92.40Q409.77 89.75 410.72 86.88Q410.48 87.07 410.24 87.27Q401.84 93.99 391.47 98.10Q380.97 102.39 369.50 101.85Q368.34 104.56 366.25 106.36Q363.71 108.55 359.77 108.55Q354.00 108.55 349.35 104.06Q344.89 99.76 341.94 93.09Q340.84 90.66 340.05 88.47Q336.62 90.88 333.55 92.82Q329.79 95.20 327.00 96.44Q326.75 96.55 326.47 96.55L326.32 96.55Q325.93 96.55 325.59 96.45Q322.86 97.61 319.85 98.65Q314.24 100.60 308.62 100.60Q305.14 100.60 301.66 99.57Q298.12 98.53 295.08 96.13Q292.13 93.84 290.80 91.00Q289.47 88.19 289.47 85.05Q289.47 79.56 293.07 74.13Q294.01 72.71 295.07 71.33Q294.06 71.52 292.06 71.65Q292.04 71.65 292.02 71.65Q278.32 72.08 266.97 74.56Q266.48 79.99 262.34 84.57Q258.00 89.38 251.51 93.01Q245.08 96.60 238.42 98.60Q231.72 100.60 226.57 100.60Q222.60 100.60 219.89 98.90Q216.87 97.02 216.87 93.45Q216.87 89.96 220.36 85.97Q223.69 82.34 233.82 77.50Q243.43 72.91 257.71 70.08Q257.36 69.18 256.65 68.80Q255.21 68.05 253.57 68.05Q250.89 68.05 247.60 68.91Q244.24 69.78 241.48 70.95Q241.46 70.96 241.44 70.96Q236.47 72.86 230.51 76.76Q224.52 80.68 219.27 85.42Q214.09 90.09 211.18 94.59L207.89 100.11Q207.88 100.14 207.86 100.17Q207.46 100.77 206.80 101.34Q205.91 102.10 204.67 102.10Q201.95 102.10 200.61 99.62ZM493.89 54.57Q492.88 53.24 492.88 51.30Q492.88 49.38 493.59 47.92Q494.29 46.19 497.51 45.12Q500.32 44.18 503.51 43.71Q506.68 43.25 508.42 43.25Q511.38 43.25 511.38 45.30Q511.38 46.03 510.89 46.68Q510.61 47.05 510.39 47.27Q510.25 47.42 510.06 47.51Q509.79 47.65 509.29 47.93Q508.70 48.27 507.87 48.60Q506.88 49.03 505.66 49.67Q504.79 50.13 504.51 50.64Q503.63 52.86 501.75 54.41Q499.74 56.05 497.47 56.05Q495.03 56.05 493.89 54.57ZM307.41 75.09Q305.63 75.53 304.06 75.67Q306.81 72.61 310.26 69.87Q314.86 66.21 318.92 64.33Q318.94 64.32 318.96 64.31Q320.92 63.33 322.41 62.99Q323.92 62.65 324.82 62.65Q326.37 62.65 326.37 63.30Q326.37 65.46 324.51 67.33Q322.40 69.43 319.29 70.99Q316.08 72.59 312.88 73.61Q309.65 74.64 307.47 75.08Q307.44 75.08 307.41 75.09ZM535.86 75.09Q534.08 75.53 532.51 75.67Q535.26 72.61 538.71 69.87Q543.31 66.21 547.37 64.33Q547.39 64.32 547.41 64.31Q549.37 63.33 550.86 62.99Q552.37 62.65 553.27 62.65Q554.82 62.65 554.82 63.30Q554.82 65.46 552.96 67.33Q550.85 69.43 547.74 70.99Q544.53 72.59 541.33 73.61Q538.10 74.64 535.92 75.08Q535.89 75.08 535.86 75.09ZM361.34 87.54Q361.94 83.96 362.54 79.93Q362.99 76.03 363.51 72.20Q363.76 70.37 364.03 68.60Q360.86 71.59 357.09 74.79Q352.12 79.01 347.22 82.98Q349.81 86.01 352.99 88.44Q356.17 90.88 360.19 92.39Q360.89 90.23 361.34 87.54ZM239.38 82.65Q246.21 79.74 255.44 77.25Q254.09 79.02 252.04 81.15Q248.25 85.08 242.68 88.60Q238.79 91.05 234.61 92.28Q230.44 93.50 227.47 93.50Q224.42 93.50 224.42 92.85Q224.42 92.48 225.04 91.53Q225.74 90.46 227.79 88.95Q227.82 88.93 227.84 88.92Q231.45 86.03 239.38 82.65ZM311.37 163.70C312.66 162.43 314.32 161.80 316.35 161.80C317.25 161.80 317.93 161.88 318.40 162.05C318.87 162.22 319.17 162.51 319.32 162.93C319.47 163.34 319.55 163.97 319.55 164.80L319.55 187.95C319.55 188.92 319.44 189.65 319.22 190.15C319.01 190.65 318.58 190.98 317.95 191.15C317.32 191.32 316.37 191.40 315.10 191.40C315.03 191.40 315.00 191.50 315.00 191.70C315.00 191.90 315.03 192.00 315.10 192.00C316.07 192.00 317.12 191.98 318.25 191.95C319.38 191.92 320.60 191.90 321.90 191.90C323.27 191.90 324.52 191.92 325.67 191.95C326.82 191.98 327.85 192.00 328.75 192.00C328.85 192.00 328.90 191.90 328.90 191.70C328.90 191.50 328.85 191.40 328.75 191.40C327.48 191.40 326.54 191.32 325.92 191.15C325.31 190.98 324.89 190.65 324.67 190.15C324.46 189.65 324.35 188.92 324.35 187.95L324.35 164.90C324.35 164.07 324.43 163.43 324.60 162.98C324.77 162.52 325.08 162.22 325.55 162.05C326.02 161.88 326.70 161.80 327.60 161.80C329.67 161.80 331.32 162.39 332.55 163.57C333.78 164.76 334.58 166.67 334.95 169.30Q335.00 169.40 335.27 169.40Q335.55 169.40 335.55 169.30C335.55 168.87 335.57 168.23 335.60 167.38C335.63 166.52 335.67 165.59 335.70 164.57C335.73 163.56 335.78 162.59 335.85 161.68C335.92 160.76 335.97 160.03 336.00 159.50C336.00 159.37 335.92 159.30 335.75 159.30C335.58 159.30 335.48 159.37 335.45 159.50Q335.20 160.30 334.27 160.52C333.66 160.68 332.75 160.75 331.55 160.75C330.25 160.75 328.91 160.77 327.52 160.82C326.14 160.88 324.27 160.90 321.90 160.90C318.07 160.90 314.72 160.85 311.85 160.75C311.55 160.75 311.18 160.73 310.75 160.68C310.32 160.62 309.92 160.52 309.57 160.38C309.22 160.23 309.05 159.98 309.05 159.65C309.05 159.48 308.96 159.40 308.77 159.40C308.59 159.40 308.50 159.48 308.50 159.65C308.50 160.22 308.47 160.96 308.42 161.88C308.37 162.79 308.31 163.73 308.22 164.70C308.14 165.67 308.07 166.56 308.00 167.38C307.93 168.19 307.87 168.83 307.80 169.30C307.80 169.37 307.89 169.41 308.07 169.43C308.26 169.44 308.35 169.40 308.35 169.30C309.08 166.83 310.09 164.97 311.37 163.70ZM412.95 190.68C414.52 191.99 416.38 192.65 418.55 192.65Q421.80 192.65 424.12 190.70C425.67 189.40 426.87 187.53 427.72 185.10C428.57 182.67 429.00 179.80 429.00 176.50C429.00 173.13 428.58 170.23 427.75 167.80C426.92 165.37 425.72 163.48 424.17 162.15C422.62 160.82 420.78 160.15 418.65 160.15Q415.35 160.15 412.97 162.12C411.39 163.44 410.17 165.31 409.30 167.73C408.43 170.14 408.00 173.02 408.00 176.35C408.00 179.68 408.43 182.57 409.30 185.02C410.17 187.48 411.38 189.36 412.95 190.68ZM283.70 169.48C283.03 168.52 282.70 167.40 282.70 166.10C282.70 165.07 282.90 164.19 283.30 163.48C283.70 162.76 284.27 162.20 285.00 161.80C285.73 161.40 286.60 161.20 287.60 161.20C288.90 161.20 290.00 161.52 290.90 162.15C291.80 162.78 292.55 163.55 293.15 164.45C293.75 165.35 294.22 166.24 294.55 167.12Q295.05 168.45 295.30 169.20C295.37 169.30 295.47 169.33 295.62 169.30C295.77 169.27 295.85 169.18 295.85 169.05L295.75 162.30C295.75 162.10 295.70 161.92 295.60 161.75C295.50 161.58 295.30 161.45 295.00 161.35Q293.80 160.80 292.10 160.50C290.97 160.30 289.85 160.20 288.75 160.20Q286.30 160.20 283.97 161.05C282.42 161.62 281.15 162.48 280.15 163.65Q278.65 165.40 278.65 168.15C278.65 169.65 278.99 170.93 279.67 171.98C280.36 173.02 281.23 173.95 282.30 174.75C283.37 175.55 284.48 176.33 285.65 177.10Q287.45 178.20 289.10 179.45C290.20 180.28 291.11 181.26 291.82 182.38C292.54 183.49 292.90 184.83 292.90 186.40C292.90 187.70 292.65 188.73 292.15 189.48Q291.40 190.60 290.25 191.05C289.48 191.35 288.67 191.50 287.80 191.50C286.57 191.50 285.47 191.21 284.52 190.62C283.57 190.04 282.73 189.28 282.00 188.35C281.27 187.42 280.62 186.39 280.07 185.27C279.52 184.16 279.05 183.10 278.65 182.10C278.62 181.97 278.51 181.91 278.32 181.93C278.14 181.94 278.07 182.03 278.10 182.20L278.40 189.75C278.43 190.02 278.49 190.22 278.57 190.35C278.66 190.48 278.77 190.60 278.90 190.70C279.43 191.03 280.12 191.35 280.97 191.65C281.82 191.95 282.74 192.18 283.72 192.35C284.71 192.52 285.65 192.60 286.55 192.60C288.68 192.60 290.54 192.23 292.12 191.48C293.71 190.73 294.95 189.69 295.85 188.38C296.75 187.06 297.20 185.53 297.20 183.80C297.20 182.20 296.82 180.84 296.07 179.73C295.32 178.61 294.38 177.62 293.22 176.75C292.07 175.88 290.87 175.07 289.60 174.30C288.43 173.57 287.32 172.82 286.27 172.05C285.22 171.28 284.37 170.43 283.70 169.48ZM379.22 191.52C379.41 191.84 379.57 192.00 379.70 192.00L396.75 192.00C396.92 192.00 397.03 191.94 397.10 191.82Q397.20 191.65 397.20 191.45L397.20 184.45C397.20 184.35 397.11 184.30 396.92 184.30C396.74 184.30 396.65 184.35 396.65 184.45C396.62 185.25 396.43 185.88 396.10 186.35C395.77 186.82 395.14 187.17 394.22 187.40C393.31 187.63 392.01 187.78 390.32 187.85Q387.80 187.95 383.80 187.95C383.50 187.95 383.42 187.83 383.55 187.60C384.28 186.63 385.19 185.57 386.27 184.43C387.36 183.27 388.48 182.07 389.65 180.80C390.82 179.53 391.91 178.21 392.92 176.82Q394.45 174.75 395.40 172.50C396.03 171.00 396.35 169.45 396.35 167.85C396.35 165.62 395.68 163.78 394.35 162.35C393.02 160.92 391.08 160.20 388.55 160.20C386.15 160.20 384.14 160.87 382.52 162.20C380.91 163.53 379.90 165.35 379.50 167.65Q379.49 167.69 379.50 167.72Q379.52 167.81 379.72 167.85C379.91 167.88 380.02 167.87 380.05 167.80C380.45 166.30 381.18 165.12 382.25 164.27C383.32 163.43 384.65 163.00 386.25 163.00C387.85 163.00 389.15 163.48 390.15 164.45Q391.65 165.90 391.65 169.30C391.65 170.87 391.37 172.42 390.80 173.95C390.23 175.48 389.41 177.09 388.32 178.77C387.24 180.46 385.92 182.28 384.37 184.25C382.82 186.22 381.08 188.42 379.15 190.85C379.02 190.98 379.04 191.21 379.22 191.52ZM481.65 176.07C480.52 175.36 479.15 175.00 477.55 175.00Q475.95 175.00 474.55 175.57C473.62 175.96 472.82 176.53 472.15 177.30C472.12 177.40 472.16 177.51 472.27 177.62C472.39 177.74 472.50 177.77 472.60 177.70C473.13 177.27 473.68 176.98 474.25 176.85Q475.10 176.65 475.75 176.65C477.28 176.65 478.43 177.32 479.20 178.68C479.97 180.02 480.35 181.98 480.35 184.55C480.35 186.65 480.05 188.35 479.45 189.65C478.85 190.95 477.82 191.60 476.35 191.60C475.35 191.60 474.47 191.31 473.72 190.73C472.97 190.14 472.34 189.32 471.82 188.27C471.31 187.23 470.92 186.00 470.67 184.60Q470.30 182.50 470.30 180.10C470.30 177.93 470.53 175.81 471.00 173.73C471.47 171.64 472.17 169.72 473.12 167.95C474.07 166.18 475.27 164.67 476.72 163.40C478.17 162.13 479.85 161.23 481.75 160.70C481.88 160.67 481.92 160.57 481.88 160.43C481.82 160.27 481.75 160.20 481.65 160.20C479.05 160.33 476.75 161.02 474.75 162.25C472.75 163.48 471.06 165.07 469.67 167.02C468.29 168.98 467.24 171.13 466.52 173.50C465.81 175.87 465.45 178.23 465.45 180.60C465.45 183.00 465.82 185.11 466.57 186.93C467.32 188.74 468.43 190.15 469.90 191.15C471.37 192.15 473.17 192.65 475.30 192.65C477.20 192.65 478.90 192.25 480.40 191.45C481.90 190.65 483.07 189.52 483.92 188.07C484.77 186.62 485.20 184.98 485.20 183.15C485.20 181.62 484.89 180.23 484.27 179.00C483.66 177.77 482.78 176.79 481.65 176.07ZM439.60 191.70C439.60 191.90 439.63 192.00 439.70 192.00C440.70 192.00 441.88 191.98 443.22 191.95C444.57 191.92 445.93 191.90 447.30 191.90C448.73 191.90 450.12 191.92 451.45 191.95C452.78 191.98 453.95 192.00 454.95 192.00C455.05 192.00 455.10 191.90 455.10 191.70C455.10 191.50 455.05 191.40 454.95 191.40C453.52 191.40 452.40 191.32 451.60 191.15C450.80 190.98 450.26 190.65 449.97 190.15C449.69 189.65 449.55 188.92 449.55 187.95L449.55 160.60C449.55 160.40 449.45 160.30 449.25 160.30C449.15 160.30 449.03 160.33 448.90 160.40L439.30 167.35C439.20 167.38 439.21 167.48 439.32 167.65C439.44 167.82 439.55 167.87 439.65 167.80C440.52 167.20 441.27 166.74 441.90 166.43C442.53 166.11 443.07 165.95 443.50 165.95Q445.10 165.95 445.10 169.30L445.10 187.95C445.10 188.92 444.93 189.65 444.60 190.15C444.27 190.65 443.72 190.98 442.95 191.15C442.18 191.32 441.10 191.40 439.70 191.40Q439.60 191.40 439.60 191.70ZM243.10 191.70C243.10 191.90 243.15 192.00 243.25 192.00L264.95 192.00Q265.70 192.00 265.70 191.25C265.70 190.15 265.75 188.95 265.85 187.65C265.95 186.35 266.07 185.23 266.20 184.30C266.20 184.23 266.11 184.18 265.92 184.15C265.74 184.12 265.63 184.15 265.60 184.25C265.00 186.38 264.00 187.99 262.60 189.07C261.20 190.16 259.37 190.70 257.10 190.70L254.65 190.70C253.92 190.70 253.35 190.61 252.95 190.43C252.55 190.24 252.26 189.93 252.07 189.48C251.89 189.02 251.80 188.45 251.80 187.75L251.80 176.40L256.55 176.40C258.42 176.40 259.82 176.77 260.75 177.50C261.68 178.23 262.15 179.30 262.15 180.70C262.15 180.77 262.25 180.80 262.45 180.80C262.65 180.80 262.75 180.77 262.75 180.70C262.75 179.77 262.72 178.91 262.67 178.12C262.62 177.34 262.60 176.55 262.60 175.75C262.60 175.12 262.61 174.50 262.62 173.90C262.64 173.30 262.65 172.47 262.65 171.40C262.65 171.30 262.56 171.25 262.38 171.25C262.19 171.25 262.10 171.30 262.10 171.40C262.10 172.60 261.65 173.52 260.75 174.15C259.85 174.78 258.47 175.10 256.60 175.10L251.80 175.10L251.80 164.90C251.80 164.20 251.90 163.64 252.10 163.23Q252.40 162.60 253.12 162.32Q253.85 162.05 255.10 162.05L257.15 162.05C259.05 162.05 260.58 162.52 261.75 163.45C262.92 164.38 263.68 165.80 264.05 167.70C264.12 167.80 264.23 167.84 264.40 167.82C264.57 167.81 264.65 167.77 264.65 167.70L264.55 161.20C264.55 160.90 264.38 160.75 264.05 160.75L243.25 160.75C243.15 160.75 243.10 160.85 243.10 161.05C243.10 161.25 243.15 161.35 243.25 161.35Q244.90 161.35 245.70 161.62C246.23 161.81 246.59 162.14 246.77 162.62C246.96 163.11 247.05 163.83 247.05 164.80L247.05 187.95C247.05 188.92 246.96 189.65 246.77 190.15C246.59 190.65 246.23 190.98 245.70 191.15C245.17 191.32 244.35 191.40 243.25 191.40C243.15 191.40 243.10 191.50 243.10 191.70ZM421.90 190.12C421.20 191.18 420.28 191.70 419.15 191.70C417.78 191.70 416.65 191.13 415.75 190.00C414.85 188.87 414.17 187.13 413.72 184.80C413.27 182.47 413.05 179.53 413.05 176.00Q413.05 170.95 413.60 167.65C413.97 165.45 414.52 163.80 415.27 162.70C416.02 161.60 416.97 161.05 418.10 161.05C419.37 161.05 420.42 161.60 421.27 162.70C422.12 163.80 422.77 165.53 423.22 167.90C423.67 170.27 423.90 173.33 423.90 177.10C423.90 180.40 423.74 183.13 423.42 185.30C423.11 187.47 422.60 189.07 421.90 190.12ZM347.00 191.82Q347.75 192.55 349.00 192.55Q350.30 192.55 351.00 191.82C351.47 191.34 351.70 190.67 351.70 189.80Q351.70 188.65 351.00 187.93Q350.30 187.20 349.00 187.20Q347.75 187.20 347.00 187.93Q346.25 188.65 346.25 189.80C346.25 190.67 346.50 191.34 347.00 191.82ZM21.13 312.62Q20.00 310.53 20.00 308.85Q20.00 306.09 21.42 301.84Q22.79 297.71 25.09 292.96Q30.39 282.51 38.33 271.78Q46.26 261.05 55.78 251.46Q65.29 241.87 75.12 234.91Q75.98 234.23 77.23 233.65Q78.61 233.00 80.10 233.00Q82.31 233.00 84.04 234.83Q85.57 236.44 86.41 238.63Q87.25 240.81 87.25 242.40Q87.25 243.11 86.55 244.78Q85.61 247.00 83.85 247.00Q82.66 247.00 81.69 245.34L81.42 244.92Q81.35 244.82 81.30 244.71Q81.00 244.45 80.85 244.45L80.67 244.45Q72.45 248.11 64.99 254.77Q57.35 261.59 50.89 269.76Q44.42 277.94 39.59 285.90Q37.54 289.27 35.83 292.25Q38.87 289.62 42.36 287.10Q49.76 281.76 58.00 278.33Q66.34 274.85 74.10 274.85Q80.11 274.85 83.24 277.39Q85.73 279.41 86.78 281.61Q91.97 280.81 96.92 280.33Q102.34 279.80 106.48 279.50Q110.65 279.20 112.50 279.20Q113.48 279.20 115.34 279.88Q117.38 280.62 117.76 281.76L121.37 278.44Q120.91 277.50 120.68 276.52Q120.35 275.10 120.35 273.60Q120.35 269.67 122.46 265.78Q124.50 262.01 127.63 258.88Q130.76 255.75 134.38 253.78Q138.12 251.75 141.45 251.75Q143.68 251.75 144.74 252.93Q145.75 254.05 145.75 255.45Q145.75 258.02 143.92 259.46Q142.91 260.33 140.64 262.59Q138.34 264.90 135.66 267.81Q132.99 270.69 130.85 273.43Q129.22 275.51 128.45 276.96Q128.70 277.19 129.03 277.43Q129.58 277.85 131.70 277.85Q133.30 277.85 135.07 277.31Q137.00 276.71 138.79 276.12Q140.50 275.55 141.92 274.84Q141.97 274.81 142.02 274.79Q142.85 274.46 143.53 274.29Q144.29 274.10 144.75 274.10Q146.72 274.10 149.02 275.30Q151.75 276.71 151.75 279.75Q151.75 280.71 151.38 281.81Q150.96 283.08 149.91 283.92Q149.90 283.93 149.88 283.94Q147.50 285.73 143.54 288.93Q139.62 292.12 136.07 295.67Q132.44 299.30 130.88 302.00Q129.40 304.55 129.40 306.00Q129.40 307.27 130.57 308.08Q131.96 309.05 135.30 309.05Q140.32 309.05 148.66 305.98Q150.71 305.25 152.60 304.37Q160.90 300.52 168.52 295.11Q176.20 289.67 183.81 283.26Q184.00 283.10 184.24 283.02Q184.32 282.99 184.40 282.97Q184.40 282.93 184.40 282.90Q184.40 281.24 185.73 279.69Q186.58 278.52 188.12 277.30Q189.72 276.04 191.74 275.37Q192.84 275.00 193.95 275.00Q196.00 275.00 198.27 275.92Q201.10 277.08 201.10 279.75Q201.10 281.27 200.05 282.53Q199.19 283.56 198.40 284.00Q196.06 285.77 192.05 289.41Q188.00 293.09 185.21 296.46Q180.25 302.85 180.25 305.85Q180.25 306.71 181.01 307.29Q181.94 308.00 184.80 308.00Q189.84 308.00 194.81 306.34Q199.89 304.65 204.17 302.44Q207.68 300.68 210.83 298.48Q214.03 296.26 217.15 293.88L223.50 288.72L230.03 283.39Q230.21 283.24 230.44 283.17Q230.88 283.02 231.21 282.93Q231.81 282.25 232.45 281.56Q236.73 276.98 241.46 273.39Q246.25 269.76 250.46 268.05Q250.48 268.04 250.49 268.03Q254.31 266.60 258.00 266.60Q263.49 266.60 267.57 269.36Q269.41 270.54 270.60 272.15Q271.15 272.91 271.47 273.78L275.85 268.77Q278.94 265.22 282.09 261.92Q285.72 257.99 289.71 254.07Q293.75 250.11 298.48 246.61Q298.49 246.59 298.51 246.58Q301.25 244.70 303.30 244.70Q304.74 244.70 305.82 245.51Q307.73 246.60 309.22 249.17Q310.75 251.80 310.75 254.25Q310.75 256.03 309.89 257.13Q308.76 258.70 307.35 258.70Q305.72 258.70 304.95 256.71Q304.77 256.32 304.72 255.85Q303.90 255.89 302.55 256.71Q300.88 257.73 300.33 258.14Q300.30 258.16 300.26 258.19Q296.01 260.98 291.59 265.10Q287.14 269.26 282.98 274.00Q281.04 276.24 279.10 278.56Q277.19 280.84 275.57 283.19Q275.56 283.21 275.54 283.23Q274.23 284.98 271.94 288.75Q269.66 292.49 267.90 296.75Q266.20 300.86 266.20 304.05Q266.20 305.97 267.17 307.11Q268.05 308.15 270.75 308.15Q277.49 308.15 283.74 304.99Q290.20 301.72 296.00 298.01Q306.38 291.32 316.09 283.28Q318.63 280.18 321.78 277.36Q326.83 272.84 331.59 270.08Q333.58 268.92 336.42 268.35Q339.17 267.80 341.70 267.80L343.50 267.80Q344.62 267.80 345.45 268.18Q349.65 269.33 351.76 271.78Q353.95 274.32 353.95 277.65Q353.95 282.39 350.79 285.54Q347.84 288.50 343.48 290.32Q339.24 292.10 334.92 293.02Q330.67 293.93 327.61 294.24Q326.48 294.40 325.42 294.40L323.40 294.40Q322.31 294.40 321.14 294.32Q320.52 294.28 320.00 294.22Q319.28 295.43 318.73 296.64Q318.05 298.15 317.77 299.50Q317.76 299.58 317.73 299.66Q317.65 299.91 317.65 300.15L317.65 301.05Q317.65 303.32 319.62 305.11Q321.65 306.95 327.15 306.95Q332.91 306.95 339.28 304.49Q345.76 301.98 352.18 297.93Q353.68 296.98 355.15 296.01Q354.14 295.10 353.59 293.98Q353.00 292.81 353.00 291.45Q353.00 289.81 353.80 288.12Q354.52 286.59 355.34 285.44Q355.37 285.41 355.39 285.38Q357.13 283.25 359.25 283.25Q362.07 283.25 362.91 286.91L363.83 289.84Q364.18 289.57 364.53 289.30Q370.43 284.74 375.05 280.72Q375.13 280.64 375.23 280.59Q375.88 280.20 376.43 280.05Q382.20 275.04 386.47 270.79Q387.57 267.62 389.68 264.60Q391.92 261.41 395.04 259.26Q398.29 257.00 402.15 257.00Q403.36 257.00 404.42 257.26Q405.34 257.49 406.41 257.80Q406.45 257.81 406.49 257.83Q409.00 258.74 409.00 261.60Q409.00 263.64 407.19 265.44Q405.30 267.34 401.94 266.78Q401.84 266.77 401.74 266.73Q401.49 266.65 401.17 266.65L400.35 266.65Q398.74 266.65 397.68 267.24Q396.52 267.88 395.47 269.06Q395.43 269.11 395.39 269.15Q393.17 271.24 392.49 275.89Q391.75 280.90 391.75 286.95Q391.75 289.78 391.82 292.54Q391.90 295.33 391.90 298.20Q391.90 300.92 391.82 303.56Q391.77 305.47 391.52 307.27Q395.94 307.29 400.47 306.66Q405.70 305.94 410.02 304.06Q415.64 301.55 420.89 298.29Q426.17 295.02 431.82 290.86Q433.59 289.54 436.71 286.86L441.66 282.66Q441.78 282.56 441.92 282.49Q442.44 282.23 443.37 282.20Q447.64 277.27 451.41 274.10Q455.53 270.65 458.40 270.65Q459.46 270.65 461.68 271.76Q463.66 272.75 464.74 273.37Q466.45 274.35 466.45 276.15Q466.45 277.35 465.65 278.37Q464.74 279.55 463.35 279.55Q462.97 279.55 462.59 279.47Q462.38 279.55 462.15 279.55Q462.09 279.55 461.14 279.90Q458.91 280.89 455.70 283.53Q452.37 286.27 448.66 289.90Q447.83 290.71 447.02 291.53Q449.18 289.93 451.36 288.43Q456.22 285.09 460.33 282.88Q464.67 280.55 467.40 280.55Q470.56 280.55 473.62 283.01Q476.80 285.58 476.80 288.75Q476.80 290.85 476.24 293.25Q476.08 293.92 475.91 294.58Q477.47 292.67 479.08 290.76Q481.18 288.27 483.07 286.70Q487.95 282.69 490.67 284.16Q490.72 284.18 490.77 284.22Q492.01 285.05 492.54 286.41Q492.95 287.49 493.13 288.50Q493.43 289.87 493.80 291.97Q494.17 294.02 494.75 296.51Q495.46 298.76 496.66 300.95Q497.82 303.06 499.59 304.70Q501.19 305.90 504.30 305.90Q506.98 305.90 510.11 305.05Q513.30 304.18 515.73 303.03Q521.79 300.07 527.64 296.08Q532.21 292.95 536.83 289.20Q538.84 286.51 541.39 283.87Q546.06 279.05 551.50 275.37Q556.97 271.67 562.25 269.96Q569.50 267.65 573.90 267.65Q579.30 267.65 581.79 270.58Q584.14 273.35 584.79 278.07Q584.80 278.16 584.80 278.25L584.80 278.70Q584.80 280.87 583.49 282.24Q584.68 282.61 585.65 283.37Q586.75 284.21 586.75 286.05Q586.75 288.15 585.27 291.12Q582.89 296.18 581.25 300.19Q579.70 304.00 579.70 306.30Q579.70 308.60 582.60 308.60Q585.68 308.60 592.81 306.13Q600.32 303.33 608.07 298.31Q615.85 293.27 622.08 288.23Q622.89 287.43 623.70 286.86Q624.42 286.36 624.99 285.93L625.02 285.91L626.43 284.80Q626.96 284.38 627.65 283.82Q627.96 283.51 628.26 283.22Q628.25 283.07 628.25 282.90Q628.25 281.24 629.58 279.69Q630.43 278.52 631.97 277.30Q633.57 276.04 635.59 275.37Q636.69 275.00 637.80 275.00Q639.85 275.00 642.12 275.92Q644.95 277.08 644.95 279.75Q644.95 281.27 643.90 282.53Q643.04 283.56 642.25 284.00Q639.91 285.77 635.90 289.41Q631.85 293.09 629.06 296.46Q624.10 302.85 624.10 305.85Q624.10 306.71 624.86 307.29Q625.79 308.00 628.65 308.00Q633.69 308.00 638.66 306.34Q643.74 304.65 648.02 302.44Q651.53 300.68 654.68 298.48Q657.88 296.26 661.00 293.88L667.35 288.72L673.88 283.39Q674.06 283.24 674.29 283.17Q674.73 283.02 675.06 282.93Q675.66 282.24 676.30 281.56Q680.58 276.98 685.31 273.39Q690.10 269.76 694.31 268.05Q694.33 268.04 694.34 268.03Q698.16 266.60 701.85 266.60Q707.34 266.60 711.41 269.36Q713.26 270.54 714.45 272.15Q715.00 272.91 715.32 273.78L719.70 268.77Q722.79 265.22 725.94 261.92Q729.57 258.00 733.56 254.07Q737.60 250.11 742.33 246.61Q742.34 246.59 742.36 246.58Q745.10 244.70 747.15 244.70Q748.59 244.70 749.67 245.51Q751.58 246.60 753.07 249.17Q754.60 251.80 754.60 254.25Q754.60 256.03 753.74 257.13Q752.61 258.70 751.20 258.70Q749.57 258.70 748.80 256.71Q748.62 256.32 748.57 255.85Q747.75 255.89 746.40 256.71Q744.73 257.73 744.18 258.14Q744.15 258.16 744.11 258.19Q739.86 260.98 735.44 265.10Q730.98 269.26 726.83 274.00Q724.89 276.24 722.95 278.56Q721.04 280.84 719.42 283.19Q719.41 283.21 719.39 283.23Q718.08 284.98 715.79 288.75Q713.51 292.49 711.75 296.75Q710.05 300.86 710.05 304.05Q710.05 305.97 711.02 307.11Q711.90 308.15 714.60 308.15Q721.34 308.15 727.59 304.99Q734.05 301.72 739.85 298.01Q750.71 291.02 760.82 282.54Q761.79 281.60 762.90 281.60L763.05 281.60Q765.25 281.60 765.25 283.80L765.25 284.10Q765.25 285.50 764.18 286.61Q762.57 288.66 757.03 293.76Q751.41 298.93 743.23 304.38Q736.22 309.10 729.42 311.93Q722.56 314.78 713.94 315.55Q706.70 316.04 703.57 312.48Q700.55 309.04 700.55 304.05Q700.55 300.56 701.66 296.92Q701.84 296.31 702.04 295.71Q701.23 296.50 700.35 297.34Q696.71 300.82 692.62 304.16Q688.49 307.53 684.57 309.76Q680.44 312.10 677.25 312.10Q674.81 312.10 672.64 310.88Q670.58 309.73 669.09 308.08Q666.35 305.16 666.35 300.75Q666.35 299.22 666.68 297.62Q666.49 297.77 666.30 297.93Q662.12 301.35 656.96 304.69Q651.78 308.04 646.29 310.48Q643.33 311.88 638.12 313.19Q632.86 314.50 627.90 314.50Q623.40 314.50 619.75 312.72Q615.65 310.71 615.65 305.25Q615.65 303.18 616.09 301.17Q611.92 304.23 607.19 307.04Q601.15 310.63 595.01 312.78Q592.70 313.55 589.72 314.24Q586.65 314.95 583.65 314.95Q578.77 314.95 574.78 312.42Q570.50 309.72 570.50 302.85Q570.50 300.44 571.14 297.82Q571.18 297.66 571.22 297.49Q569.87 298.75 568.32 300.14Q564.51 303.57 560.03 306.76Q555.50 309.98 550.97 312.06Q546.28 314.20 542.10 314.20Q536.72 314.20 533.33 310.32Q530.90 307.70 530.90 303.45Q530.90 302.89 530.95 302.31Q528.27 304.16 525.46 305.91Q520.03 309.27 514.50 311.42Q511.60 312.49 508.85 313.25Q505.98 314.05 503.25 314.05Q496.95 314.05 493.23 311.15Q489.65 308.37 487.57 304.69Q487.55 304.66 487.54 304.63Q486.60 302.76 485.90 300.82Q485.21 298.91 484.75 297.37Q484.75 297.34 484.74 297.32Q484.46 296.21 484.25 295.17Q483.45 296.02 482.66 297.00Q481.02 299.01 479.38 301.09L476.09 305.50L473.69 308.73Q473.68 308.74 473.67 308.75Q471.63 311.35 468.60 311.35Q466.59 311.35 465.17 310.03Q463.70 308.67 463.70 306.15Q463.70 303.23 465.35 298.59Q466.87 294.33 467.45 290.73Q467.46 290.35 467.55 289.92Q467.60 289.67 467.60 289.50Q467.60 288.23 467.40 288.09Q466.99 287.80 466.50 287.80Q465.28 287.80 463.36 288.66Q461.27 289.60 459.70 290.60Q459.68 290.61 459.67 290.61Q458.25 291.47 455.17 293.96Q452.03 296.50 448.22 299.78Q444.41 303.07 440.69 306.49L436.28 310.69Q434.24 312.65 432.58 314.16Q428.46 317.95 426.75 317.95Q424.20 317.95 422.99 317.00Q421.46 315.81 422.03 313.67Q422.24 312.48 423.02 311.50L423.37 311.04Q423.39 310.88 423.46 310.72Q424.70 307.93 427.75 303.13Q428.25 302.34 428.78 301.53Q421.02 307.38 411.64 311.10Q401.15 315.39 389.67 314.85Q388.52 317.56 386.42 319.36Q383.88 321.55 379.95 321.55Q374.18 321.55 369.52 317.06Q365.06 312.76 362.12 306.09Q361.01 303.66 360.23 301.47Q356.79 303.88 353.72 305.82Q349.96 308.20 347.18 309.44Q346.93 309.55 346.65 309.55L346.50 309.55Q346.11 309.55 345.76 309.45Q343.03 310.61 340.03 311.65Q334.42 313.60 328.80 313.60Q325.31 313.60 321.83 312.57Q318.29 311.53 315.25 309.13Q312.31 306.84 310.97 304.00Q309.65 301.19 309.65 298.05Q309.65 297.42 309.70 296.78Q305.18 300.51 299.38 304.38Q292.37 309.10 285.57 311.93Q278.71 314.78 270.09 315.55Q262.85 316.04 259.72 312.48Q256.70 309.04 256.70 304.05Q256.70 300.56 257.81 296.92Q257.99 296.32 258.19 295.71Q257.38 296.49 256.50 297.34Q252.86 300.82 248.77 304.16Q244.64 307.53 240.72 309.76Q236.59 312.10 233.40 312.10Q230.96 312.10 228.79 310.88Q226.73 309.73 225.24 308.08Q222.50 305.16 222.50 300.75Q222.50 299.22 222.83 297.62Q222.64 297.78 222.45 297.93Q218.27 301.35 213.11 304.69Q207.93 308.04 202.44 310.48Q199.48 311.88 194.27 313.19Q189.01 314.50 184.05 314.50Q179.55 314.50 175.90 312.72Q171.80 310.71 171.80 305.25Q171.80 302.95 172.35 300.73Q168.01 303.95 163.05 306.96Q157.01 310.63 150.88 312.78Q148.24 313.71 144.25 314.48Q140.22 315.25 136.20 315.25Q131.10 315.25 126.70 313.09Q121.85 310.71 121.85 304.35Q121.85 297.91 126.09 292.32Q129.29 288.09 132.65 284.80L132.60 284.80Q128.64 284.80 125.67 283.19Q124.50 284.88 121.96 287.36Q119.22 290.02 116.63 292.15Q110.28 297.44 103.17 302.20Q96.04 306.99 89.04 310.18Q81.91 313.44 75.51 313.75Q75.48 313.75 75.45 313.75Q74.88 313.75 73.94 313.58Q72.85 313.38 72.18 312.93Q72.07 312.86 71.98 312.77Q71.30 312.09 71.30 311.10Q71.30 309.55 72.62 308.89Q73.37 308.51 75.64 308.03Q80.56 307.01 86.55 303.87Q92.63 300.68 99.24 296.15Q105.87 291.61 112.13 286.54Q112.15 286.53 112.16 286.52Q113.42 285.56 114.71 284.46Q113.84 284.57 112.58 284.65Q112.56 284.65 112.54 284.65Q98.84 285.08 87.49 287.56Q87.00 292.99 82.86 297.57Q78.52 302.38 72.03 306.01Q65.61 309.60 58.95 311.60Q52.24 313.60 47.10 313.60Q43.13 313.60 40.41 311.90Q37.40 310.02 37.40 306.45Q37.40 302.96 40.89 298.97Q44.21 295.34 54.34 290.50Q63.95 285.91 78.24 283.08Q77.89 282.18 77.17 281.80Q75.73 281.05 74.10 281.05Q71.42 281.05 68.13 281.91Q64.77 282.78 62.00 283.95Q61.98 283.96 61.96 283.96Q56.99 285.86 51.04 289.76Q45.05 293.68 39.80 298.42Q34.61 303.09 31.71 307.58L28.42 313.11Q28.40 313.14 28.38 313.17Q27.98 313.77 27.32 314.34Q26.43 315.10 25.20 315.10Q22.48 315.10 21.13 312.62ZM200.42 267.57Q199.40 266.24 199.40 264.30Q199.40 262.38 200.11 260.92Q200.82 259.19 204.04 258.12Q206.85 257.18 210.04 256.71Q213.21 256.25 214.95 256.25Q217.90 256.25 217.90 258.30Q217.90 259.03 217.41 259.68Q217.13 260.05 216.92 260.27Q216.77 260.42 216.58 260.51Q216.31 260.65 215.82 260.93Q215.22 261.27 214.40 261.60Q213.40 262.03 212.18 262.67Q211.31 263.13 211.04 263.64Q210.16 265.86 208.27 267.41Q206.26 269.05 204.00 269.05Q201.56 269.05 200.42 267.57ZM644.27 267.57Q643.25 266.24 643.25 264.30Q643.25 262.38 643.96 260.92Q644.67 259.19 647.89 258.12Q650.70 257.18 653.89 256.71Q657.06 256.25 658.80 256.25Q661.75 256.25 661.75 258.30Q661.75 259.03 661.27 259.68Q660.98 260.05 660.77 260.27Q660.62 260.42 660.43 260.51Q660.16 260.65 659.67 260.93Q659.07 261.27 658.25 261.60Q657.25 262.03 656.03 262.67Q655.16 263.13 654.89 263.64Q654.01 265.86 652.12 267.41Q650.11 269.05 647.85 269.05Q645.41 269.05 644.27 267.57ZM263.74 275.02Q264.98 276.53 265.66 278.01Q265.97 278.80 266.39 279.33Q259.98 286.03 252.67 292.10Q244.79 298.64 236.48 303.69Q236.46 303.70 236.44 303.71Q233.31 305.75 231.30 305.75Q231.04 305.75 230.74 305.48Q230.50 305.27 230.50 303.75L230.50 302.77Q230.50 302.41 230.61 301.97Q230.63 301.91 230.63 301.85Q231.19 298.22 234.27 293.43Q237.42 288.52 241.96 284.05Q246.50 279.59 251.46 276.67Q256.25 273.85 260.40 273.85Q262.78 273.85 263.74 275.02ZM707.59 275.02Q708.83 276.53 709.50 278.01Q709.82 278.80 710.24 279.33Q703.83 286.03 696.52 292.10Q688.64 298.64 680.33 303.69Q680.31 303.70 680.29 303.71Q677.16 305.75 675.15 305.75Q674.89 305.75 674.59 305.48Q674.35 305.27 674.35 303.75L674.35 302.77Q674.35 302.41 674.46 301.97Q674.48 301.91 674.48 301.85Q675.04 298.22 678.12 293.43Q681.27 288.52 685.81 284.05Q690.35 279.59 695.31 276.67Q700.10 273.85 704.25 273.85Q706.63 273.85 707.59 275.02ZM327.58 288.09Q325.80 288.53 324.23 288.67Q326.98 285.61 330.43 282.87Q335.04 279.21 339.10 277.33Q339.11 277.32 339.13 277.31Q341.09 276.33 342.59 275.99Q344.10 275.65 345.00 275.65Q346.55 275.65 346.55 276.30Q346.55 278.46 344.68 280.33Q342.58 282.43 339.47 283.99Q336.26 285.59 333.06 286.61Q329.82 287.64 327.65 288.08Q327.61 288.08 327.58 288.09ZM578.04 282.78Q578.47 282.44 579.02 282.23Q578.45 281.35 578.45 279.75Q578.45 278.85 578.04 277.13Q577.81 276.19 576.22 276.10Q576.18 276.10 576.13 276.09Q573.02 275.68 568.60 277.43Q564.01 279.26 559.18 282.55Q554.31 285.87 549.95 289.86Q545.62 293.82 542.77 297.70Q540.04 301.41 539.64 304.09Q539.62 304.20 539.58 304.31Q539.50 304.56 539.50 304.80L539.50 305.55Q539.50 307.16 539.97 307.52Q540.59 308.00 541.50 308.00Q543.76 308.00 546.79 306.55Q550.01 305.02 552.85 303.12Q555.71 301.22 556.86 300.20Q561.53 296.29 567.46 291.56Q573.37 286.85 578.00 282.82Q578.02 282.80 578.04 282.78ZM381.52 300.55L381.52 300.54L382.71 292.92Q383.16 289.02 383.69 285.20Q383.94 283.37 384.20 281.60Q381.03 284.59 377.27 287.79Q372.30 292.01 367.39 295.98Q369.98 299.01 373.16 301.44Q376.35 303.88 380.36 305.39Q381.07 303.24 381.52 300.55ZM59.91 295.65Q66.74 292.74 75.97 290.25Q74.61 292.02 72.56 294.15Q68.77 298.08 63.21 301.60Q59.31 304.05 55.13 305.28Q50.96 306.50 48.00 306.50Q44.95 306.50 44.95 305.85Q44.95 305.48 45.57 304.53Q46.26 303.46 48.32 301.95Q48.34 301.93 48.36 301.92Q51.97 299.03 59.91 295.65ZM423.34 311.12L423.36 311.13Q423.35 311.19 423.35 311.25L423.34 311.12ZM316.60 376.30C314.57 376.30 312.91 376.93 311.62 378.20C310.34 379.47 309.33 381.33 308.60 383.80C308.60 383.90 308.51 383.94 308.32 383.92C308.14 383.91 308.05 383.87 308.05 383.80C308.12 383.33 308.18 382.69 308.25 381.88Q308.35 380.65 308.47 379.20C308.56 378.23 308.62 377.29 308.67 376.38C308.72 375.46 308.75 374.72 308.75 374.15C308.75 373.98 308.84 373.90 309.02 373.90C309.21 373.90 309.30 373.98 309.30 374.15C309.30 374.48 309.47 374.73 309.82 374.88C310.17 375.02 310.57 375.12 311.00 375.17C311.43 375.23 311.80 375.25 312.10 375.25C314.97 375.35 318.32 375.40 322.15 375.40Q325.70 375.40 327.77 375.33C329.16 375.27 330.50 375.25 331.80 375.25C333.00 375.25 333.91 375.17 334.52 375.02C335.14 374.88 335.53 374.53 335.70 374.00C335.73 373.87 335.83 373.80 336.00 373.80C336.17 373.80 336.25 373.87 336.25 374.00C336.22 374.53 336.17 375.26 336.10 376.17C336.03 377.09 335.98 378.06 335.95 379.08C335.92 380.09 335.88 381.02 335.85 381.88Q335.80 383.15 335.80 383.80C335.80 383.87 335.71 383.90 335.52 383.90C335.34 383.90 335.23 383.87 335.20 383.80Q334.65 379.85 332.80 378.08Q330.95 376.30 327.85 376.30C326.95 376.30 326.27 376.38 325.80 376.55C325.33 376.72 325.02 377.02 324.85 377.48C324.68 377.92 324.60 378.57 324.60 379.40L324.60 402.45C324.60 403.42 324.71 404.15 324.92 404.65C325.14 405.15 325.56 405.48 326.17 405.65C326.79 405.82 327.73 405.90 329.00 405.90C329.10 405.90 329.15 406.00 329.15 406.20C329.15 406.40 329.10 406.50 329.00 406.50C328.10 406.50 327.07 406.48 325.92 406.45C324.77 406.42 323.52 406.40 322.15 406.40C320.85 406.40 319.63 406.42 318.50 406.45C317.37 406.48 316.32 406.50 315.35 406.50C315.28 406.50 315.25 406.40 315.25 406.20C315.25 406.00 315.28 405.90 315.35 405.90C316.62 405.90 317.57 405.82 318.20 405.65C318.83 405.48 319.26 405.15 319.47 404.65C319.69 404.15 319.80 403.42 319.80 402.45L319.80 379.30C319.80 378.47 319.72 377.84 319.57 377.42C319.42 377.01 319.12 376.72 318.65 376.55C318.18 376.38 317.50 376.30 316.60 376.30ZM475.45 406.25C475.32 406.42 475.07 406.50 474.70 406.50L471.15 406.50C470.95 406.50 470.78 406.43 470.65 406.30C470.52 406.17 470.50 406.00 470.60 405.80L482.30 379.80C482.43 379.57 482.37 379.45 482.10 379.45Q477.85 379.45 475.17 379.50C473.39 379.53 472.00 379.62 471.00 379.75C470.00 379.88 469.26 380.08 468.77 380.33C468.29 380.58 467.96 380.90 467.77 381.30C467.59 381.70 467.40 382.22 467.20 382.85C467.17 382.95 467.06 382.98 466.88 382.95C466.69 382.92 466.62 382.83 466.65 382.70L468.65 373.95C468.72 373.85 468.84 373.81 469.02 373.83C469.21 373.84 469.28 373.90 469.25 374.00C469.12 374.53 469.20 374.88 469.50 375.02C469.80 375.17 470.50 375.25 471.60 375.25L484.85 375.25C485.02 375.25 485.15 375.33 485.25 375.50C485.35 375.67 485.37 375.80 485.30 375.90L475.85 405.35C475.72 405.78 475.58 406.08 475.45 406.25ZM418.80 407.15C416.63 407.15 414.77 406.49 413.20 405.17Q410.85 403.20 409.55 399.52C408.68 397.08 408.25 394.18 408.25 390.85C408.25 387.52 408.68 384.64 409.55 382.23C410.42 379.81 411.64 377.94 413.22 376.62C414.81 375.31 416.70 374.65 418.90 374.65C421.03 374.65 422.87 375.32 424.42 376.65Q426.75 378.65 428.00 382.30C428.83 384.73 429.25 387.63 429.25 391.00C429.25 394.30 428.82 397.17 427.97 399.60Q426.70 403.25 424.37 405.20Q422.05 407.15 418.80 407.15ZM282.95 380.60C282.95 381.90 283.28 383.02 283.95 383.98C284.62 384.92 285.47 385.78 286.52 386.55C287.57 387.32 288.68 388.07 289.85 388.80C291.12 389.57 292.32 390.38 293.47 391.25C294.62 392.12 295.57 393.11 296.32 394.23C297.07 395.34 297.45 396.70 297.45 398.30C297.45 400.03 297.00 401.56 296.10 402.88C295.20 404.19 293.96 405.23 292.38 405.98C290.79 406.73 288.93 407.10 286.80 407.10C285.90 407.10 284.96 407.02 283.97 406.85C282.99 406.68 282.07 406.45 281.22 406.15C280.38 405.85 279.68 405.53 279.15 405.20C279.02 405.10 278.91 404.98 278.82 404.85C278.74 404.72 278.68 404.52 278.65 404.25L278.35 396.70C278.32 396.53 278.39 396.44 278.57 396.42C278.76 396.41 278.87 396.47 278.90 396.60C279.30 397.60 279.77 398.66 280.32 399.77C280.88 400.89 281.52 401.92 282.25 402.85C282.98 403.78 283.82 404.54 284.77 405.12C285.72 405.71 286.82 406.00 288.05 406.00C288.92 406.00 289.73 405.85 290.50 405.55Q291.65 405.10 292.40 403.98C292.90 403.23 293.15 402.20 293.15 400.90C293.15 399.33 292.79 397.99 292.07 396.88C291.36 395.76 290.45 394.78 289.35 393.95C288.25 393.12 287.10 392.33 285.90 391.60C284.73 390.83 283.62 390.05 282.55 389.25C281.48 388.45 280.61 387.52 279.92 386.48C279.24 385.42 278.90 384.15 278.90 382.65Q278.90 379.90 280.40 378.15Q281.90 376.40 284.22 375.55Q286.55 374.70 289.00 374.70C290.10 374.70 291.22 374.80 292.35 375.00C293.48 375.20 294.45 375.48 295.25 375.85C295.55 375.95 295.75 376.08 295.85 376.25C295.95 376.42 296.00 376.60 296.00 376.80L296.10 383.55C296.10 383.68 296.02 383.77 295.88 383.80C295.72 383.83 295.62 383.80 295.55 383.70C295.38 383.20 295.13 382.51 294.80 381.62Q294.30 380.30 293.40 378.95C292.80 378.05 292.05 377.28 291.15 376.65C290.25 376.02 289.15 375.70 287.85 375.70C286.85 375.70 285.98 375.90 285.25 376.30C284.52 376.70 283.95 377.26 283.55 377.98C283.15 378.69 282.95 379.57 282.95 380.60ZM379.95 406.50C379.82 406.50 379.66 406.34 379.47 406.02C379.29 405.71 379.27 405.48 379.40 405.35C381.33 402.92 383.07 400.72 384.62 398.75C386.17 396.78 387.49 394.96 388.57 393.27C389.66 391.59 390.48 389.98 391.05 388.45C391.62 386.92 391.90 385.37 391.90 383.80C391.90 381.53 391.40 379.92 390.40 378.95Q388.90 377.50 386.50 377.50C384.90 377.50 383.57 377.92 382.50 378.77C381.43 379.62 380.70 380.80 380.30 382.30C380.27 382.37 380.16 382.38 379.97 382.35C379.79 382.32 379.72 382.25 379.75 382.15C380.15 379.85 381.16 378.03 382.77 376.70C384.39 375.37 386.40 374.70 388.80 374.70C391.33 374.70 393.27 375.42 394.60 376.85C395.93 378.28 396.60 380.12 396.60 382.35C396.60 383.95 396.28 385.50 395.65 387.00C395.02 388.50 394.19 389.94 393.17 391.33C392.16 392.71 391.07 394.03 389.90 395.30C388.73 396.57 387.61 397.77 386.52 398.92C385.44 400.08 384.53 401.13 383.80 402.10C383.67 402.33 383.75 402.45 384.05 402.45C386.72 402.45 388.89 402.42 390.57 402.35C392.26 402.28 393.56 402.13 394.47 401.90C395.39 401.67 396.02 401.32 396.35 400.85C396.68 400.38 396.87 399.75 396.90 398.95C396.90 398.85 396.99 398.80 397.17 398.80C397.36 398.80 397.45 398.85 397.45 398.95L397.45 405.95Q397.45 406.15 397.35 406.33C397.28 406.44 397.17 406.50 397.00 406.50L379.95 406.50ZM439.25 406.50C439.12 406.50 438.96 406.34 438.77 406.02C438.59 405.71 438.57 405.48 438.70 405.35C440.63 402.92 442.38 400.72 443.92 398.75C445.47 396.78 446.79 394.96 447.88 393.27C448.96 391.59 449.78 389.98 450.35 388.45C450.92 386.92 451.20 385.37 451.20 383.80C451.20 381.53 450.70 379.92 449.70 378.95C448.70 377.98 447.40 377.50 445.80 377.50C444.20 377.50 442.87 377.92 441.80 378.77C440.73 379.62 440.00 380.80 439.60 382.30C439.57 382.37 439.46 382.38 439.27 382.35C439.09 382.32 439.02 382.25 439.05 382.15C439.45 379.85 440.46 378.03 442.07 376.70C443.69 375.37 445.70 374.70 448.10 374.70C450.63 374.70 452.57 375.42 453.90 376.85C455.23 378.28 455.90 380.12 455.90 382.35C455.90 383.95 455.58 385.50 454.95 387.00C454.32 388.50 453.49 389.94 452.47 391.33C451.46 392.71 450.37 394.03 449.20 395.30C448.03 396.57 446.91 397.77 445.82 398.92C444.74 400.08 443.83 401.13 443.10 402.10C442.97 402.33 443.05 402.45 443.35 402.45C446.02 402.45 448.19 402.42 449.88 402.35C451.56 402.28 452.86 402.13 453.77 401.90C454.69 401.67 455.32 401.32 455.65 400.85Q456.15 400.15 456.20 398.95C456.20 398.85 456.29 398.80 456.47 398.80C456.66 398.80 456.75 398.85 456.75 398.95L456.75 405.95C456.75 406.08 456.72 406.21 456.65 406.33C456.58 406.44 456.47 406.50 456.30 406.50L439.25 406.50ZM265.95 405.75Q265.95 406.50 265.20 406.50L243.50 406.50C243.40 406.50 243.35 406.40 243.35 406.20C243.35 406.00 243.40 405.90 243.50 405.90C244.60 405.90 245.42 405.82 245.95 405.65C246.48 405.48 246.84 405.15 247.02 404.65C247.21 404.15 247.30 403.42 247.30 402.45L247.30 379.30C247.30 378.33 247.21 377.61 247.02 377.12C246.84 376.64 246.48 376.31 245.95 376.12C245.42 375.94 244.60 375.85 243.50 375.85C243.40 375.85 243.35 375.75 243.35 375.55C243.35 375.35 243.40 375.25 243.50 375.25L264.30 375.25C264.63 375.25 264.80 375.40 264.80 375.70L264.90 382.20C264.90 382.27 264.82 382.31 264.65 382.33C264.48 382.34 264.37 382.30 264.30 382.20C263.93 380.30 263.17 378.88 262.00 377.95C260.83 377.02 259.30 376.55 257.40 376.55L255.35 376.55Q254.10 376.55 253.37 376.83C252.89 377.01 252.55 377.31 252.35 377.73C252.15 378.14 252.05 378.70 252.05 379.40L252.05 389.60L249.80 389.60L249.80 390.90L252.05 390.90L252.05 402.25C252.05 402.95 252.14 403.52 252.32 403.98C252.51 404.42 252.80 404.74 253.20 404.92Q253.80 405.20 254.90 405.20L257.35 405.20C259.62 405.20 261.45 404.66 262.85 403.58Q264.95 401.95 265.85 398.75C265.88 398.65 265.99 398.62 266.17 398.65C266.36 398.68 266.45 398.73 266.45 398.80C266.32 399.73 266.20 400.85 266.10 402.15C266.00 403.45 265.95 404.65 265.95 405.75ZM252.05 390.90L256.80 390.90Q259.60 390.90 261.00 392.00C261.93 392.73 262.40 393.80 262.40 395.20C262.40 395.27 262.50 395.30 262.70 395.30C262.90 395.30 263.00 395.27 263.00 395.20Q263.00 393.80 262.92 392.62C262.88 391.84 262.85 391.05 262.85 390.25C262.85 389.62 262.86 389.00 262.88 388.40C262.89 387.80 262.90 386.97 262.90 385.90C262.90 385.80 262.81 385.75 262.62 385.75C262.44 385.75 262.35 385.80 262.35 385.90C262.35 387.10 261.90 388.02 261.00 388.65C260.10 389.28 258.72 389.60 256.85 389.60L252.05 389.60L252.05 390.90ZM419.40 406.20C420.53 406.20 421.45 405.67 422.15 404.62C422.85 403.58 423.36 401.97 423.67 399.80C423.99 397.63 424.15 394.90 424.15 391.60C424.15 387.83 423.92 384.77 423.47 382.40C423.02 380.03 422.37 378.30 421.52 377.20C420.67 376.10 419.62 375.55 418.35 375.55C417.22 375.55 416.27 376.10 415.52 377.20C414.77 378.30 414.22 379.95 413.85 382.15C413.48 384.35 413.30 387.13 413.30 390.50C413.30 394.03 413.52 396.97 413.97 399.30C414.42 401.63 415.10 403.37 416.00 404.50C416.90 405.63 418.03 406.20 419.40 406.20ZM349.25 407.05C348.42 407.05 347.75 406.81 347.25 406.33C346.75 405.84 346.50 405.17 346.50 404.30Q346.50 403.15 347.25 402.42C347.75 401.94 348.42 401.70 349.25 401.70C350.12 401.70 350.78 401.94 351.25 402.42Q351.95 403.15 351.95 404.30C351.95 405.17 351.72 405.84 351.25 406.33C350.78 406.81 350.12 407.05 349.25 407.05ZM369.07 493.74L368.01 496.77L363.60 496.77L362.54 493.74L362.48 490.72L362.62 487.69L362.15 484.66L362.34 481.64L362.39 478.61L362.70 475.58L362.22 472.55L362.46 469.53L363.69 466.50L367.92 466.50L369.14 469.53L369.38 472.55L368.90 475.58L369.22 478.61L369.27 481.64L369.45 484.66L368.99 487.69L369.12 490.72L369.07 493.74ZM381.59 501.89L383.65 500.27L385.49 498.53L386.69 496.38L388.06 494.33L388.96 491.99L390.62 490.13L391.90 488.03L393.35 486.04L394.10 483.60L394.60 481.02L391.15 478.86L389.04 480.44L387.18 482.18L386.03 484.36L384.70 486.43L383.76 488.74L382.05 490.58L380.80 492.70L379.40 494.72L378.64 497.14L378.09 499.70L381.59 501.89ZM353.45 499.74L353.14 497.04L351.94 494.89L350.99 492.58L349.43 490.66L348.09 488.60L346.63 486.61L345.75 484.25L344.27 482.28L342.83 480.28L340.31 478.96L337.16 480.92L337.25 483.77L338.42 485.94L339.54 488.14L341.27 489.96L342.42 492.14L343.68 494.25L344.72 496.50L346.38 498.36L347.79 500.38L350.08 501.85L353.45 499.74ZM530.76 539.60L530.83 539.56L530.16 537.72L530.72 534.87L527.17 533.99L523.44 533.36L519.60 532.81L515.66 532.32L511.64 531.88L507.53 531.49L503.35 531.17L499.09 530.94L494.77 530.82L490.40 530.88L485.99 531.14L481.57 531.54L477.12 532.06L472.66 532.68L468.19 533.37L463.71 534.08L459.21 534.78L454.70 535.45L450.17 536.07L445.63 536.65L441.08 537.20L436.53 537.74L431.99 538.32L427.46 538.97L422.97 539.72L418.53 540.61L414.15 541.65L409.83 542.85L405.60 544.18L401.46 545.63L397.39 547.16L393.42 548.73L389.51 550.32L385.69 551.88L381.93 553.41L378.24 554.88L374.63 556.32L371.09 557.72L368.10 558.94L365.92 559.24L364.57 557.60L361.32 556.09L357.78 554.52L354.14 552.95L350.40 551.37L346.58 549.79L342.67 548.22L338.68 546.68L334.59 545.19L330.41 543.80L326.14 542.53L321.78 541.41L317.35 540.46L312.85 539.68L308.32 539.06L303.75 538.57L299.17 538.18L294.58 537.85L290.00 537.52L285.43 537.16L280.88 536.73L276.35 536.24L271.85 535.66L267.36 535.03L262.89 534.37L258.45 533.71L254.03 533.09L249.62 532.56L245.24 532.13L240.88 531.83L236.55 531.72L232.27 531.79L228.05 531.96L223.89 532.22L219.81 532.55L215.81 532.93L211.89 533.37L208.07 533.86L204.36 534.44L200.82 535.31L201.19 537.76L200.42 539.58L195.12 539.29L194.24 543.19L194.20 547.34L194.77 551.41L195.86 555.30L197.35 558.98L199.10 562.44L201.00 565.74L203.05 568.87L205.15 571.90L207.32 574.86L209.58 577.71L211.97 580.43L214.51 583.00L217.22 585.40L220.07 587.66L223.02 589.83L226.06 591.98L229.14 594.15L232.26 596.37L235.43 598.64L238.70 600.92L242.09 603.13L245.65 605.16L249.39 606.93L253.28 608.37L257.30 609.47L261.40 610.25L265.53 610.79L267.96 611.04L267.95 611.05L267.45 613.52L267.06 616.10L266.73 618.78L266.45 621.51L266.08 624.23L265.61 626.90L265.12 629.52L264.66 632.09L264.27 634.63L263.91 637.18L263.49 639.77L262.95 642.41L262.31 645.12L261.68 647.91L261.21 650.78L261.02 653.65L261.11 656.45L261.39 659.11L261.63 661.85L261.70 664.53L261.52 667.16L261.11 669.76L260.58 672.39L260.03 675.10L259.54 677.91L259.10 680.80L258.65 683.71L258.12 686.59L257.50 689.43L256.84 692.21L256.22 694.94L255.73 697.66L255.36 700.42L255.18 703.28L255.04 706.21L254.88 709.19L254.82 710.51L254.02 710.42L250.32 709.75L246.61 708.95L242.85 708.36L239.00 708.16L235.15 708.26L231.36 708.40L227.67 708.39L224.08 708.33L220.60 708.36L217.17 708.55L213.74 708.87L210.29 709.12L206.81 709.31L203.53 710.08L204.04 717.04L207.18 717.34L210.31 717.41L213.60 717.73L217.02 718.19L220.53 718.46L224.09 718.50L227.65 718.42L231.19 718.46L234.72 718.79L238.24 719.30L241.82 719.71L245.50 719.86L249.28 719.85L253.08 719.94L256.86 720.28L260.58 720.79L264.20 721.29L267.74 721.75L271.18 722.34L274.51 723.32L277.71 724.72L280.88 726.31L284.16 727.77L287.59 728.93L291.07 729.90L294.45 730.90L297.71 731.88L300.86 732.76L303.94 733.49L307.19 733.89L309.72 728.21L307.11 726.00L304.11 724.30L300.98 722.86L297.83 721.55L294.70 720.17L291.60 718.63L288.37 717.15L284.88 715.93L281.15 714.94L277.29 714.01L273.40 713.04L269.47 712.10L265.53 711.41L263.49 711.22L263.66 710.25L264.29 707.60L265.06 704.92L265.83 702.17L266.38 699.33L266.72 696.43L266.86 693.53L266.93 690.68L267.07 687.89L267.41 685.16L267.96 682.47L268.63 679.77L269.31 677.01L269.89 674.14L270.34 671.17L270.67 668.14L270.96 665.10L271.25 662.08L271.55 659.11L271.76 656.42L271.88 653.89L271.90 651.44L271.89 649.02L271.95 646.56L272.18 644.03L272.61 641.45L273.15 638.82L273.67 636.14L274.07 633.44L274.34 630.75L274.53 628.12L274.81 625.54L275.27 623.02L275.94 620.53L276.64 617.99L277.27 615.36L277.70 612.60L277.73 612.00L277.79 612.01L281.83 612.48L285.85 613.01L289.88 613.51L293.91 613.92L297.97 614.15L302.04 614.17L306.11 613.94L310.16 613.50L314.18 612.88L318.16 612.15L322.12 611.35L326.06 610.49L329.98 609.52L333.87 608.37L337.67 606.98L341.30 605.27L344.70 603.22L347.78 600.83L350.53 598.16L352.96 595.31L355.15 592.34L357.13 589.33L358.93 586.25L360.67 583.19L362.37 580.09L363.98 576.91L364.01 576.84L364.67 578.25L366.62 581.67L368.78 584.92L371.12 588.01L373.65 590.93L376.46 593.54L379.48 595.83L382.67 597.80L385.99 599.44L389.40 600.79L392.84 601.95L396.27 603.02L399.69 604.11L403.08 605.30L406.46 606.64L409.85 608.10L413.30 609.63L416.85 611.11L420.54 612.46L424.38 613.58L428.37 614.42L432.48 614.96L436.67 615.22L440.92 615.27L445.18 615.15L449.45 614.92L453.73 614.58L455.58 614.38L455.63 614.86L455.78 617.48L455.88 620.04L456.07 622.56L456.29 625.08L456.51 627.66L456.65 630.32L456.70 633.06L456.66 635.89L456.66 638.79L456.84 641.69L457.27 644.53L457.95 647.23L458.77 649.78L459.56 652.24L460.19 654.66L460.62 657.09L460.89 659.57L461.14 662.31L461.47 665.10L461.91 667.94L462.41 670.80L462.87 673.66L463.19 676.50L463.34 679.31L463.35 682.08L463.33 684.81L463.37 687.53L463.51 690.30L463.72 693.14L463.96 696.07L464.18 699.08L464.45 702.12L464.95 705.15L465.69 708.09L466.64 710.90L467.14 712.13L465.60 712.52L461.73 713.32L457.92 714.01L454.27 714.73L450.84 715.61L447.50 716.59L444.09 717.48L440.51 718.21L436.81 718.97L433.13 720.07L429.75 721.81L426.73 723.91L423.92 725.94L421.33 728.01L424.15 733.35L427.26 732.43L430.34 731.49L433.46 730.82L436.50 730.15L439.52 729.28L442.74 728.43L446.21 727.72L449.90 727.11L453.66 726.35L457.32 725.23L460.81 723.82L464.20 722.42L467.64 721.38L471.20 720.79L474.86 720.44L478.58 720.01L482.32 719.38L486.02 718.73L489.64 718.32L493.14 718.21L496.50 718.24L499.83 718.21L503.25 718.09L506.81 718.06L510.41 718.26L514.00 718.61L517.51 718.72L520.85 718.48L524.02 718.10L527.20 717.56L527.74 711.31L524.53 710.22L521.15 709.57L517.81 709.16L514.51 709.02L511.19 708.90L507.76 708.41L504.15 707.66L500.30 707.03L496.27 706.89L492.22 707.33L488.29 708.08L484.47 708.78L480.72 709.33L476.99 709.88L475.63 710.15L475.51 708.79L475.17 706.04L474.78 703.39L474.41 700.81L474.06 698.21L473.91 695.54L473.92 692.78L473.95 689.92L473.86 686.99L473.55 684.03L473.02 681.10L472.40 678.23L471.83 675.41L471.44 672.61L471.25 669.83L471.17 667.04L471.09 664.22L470.90 661.35L470.56 658.44L470.15 655.67L469.69 652.87L469.25 650.08L468.81 647.35L468.34 644.72L467.79 642.23L467.17 639.85L466.54 637.52L466.00 635.14L465.66 632.67L465.54 630.09L465.58 627.42L465.63 624.68L465.55 621.90L465.29 619.13L464.82 616.42L464.31 613.78L464.19 613.04L466.40 612.57L470.47 611.40L474.41 609.94L478.20 608.21L481.84 606.29L485.37 604.27L488.83 602.23L492.25 600.25L495.68 598.37L499.13 596.57L502.58 594.80L506.00 592.97L509.34 591.00L512.51 588.81L515.48 586.36L518.18 583.66L520.62 580.76L522.82 577.71L524.82 574.59L526.69 571.44L528.46 568.26L530.10 565.04L531.47 561.71L532.62 558.30L533.48 554.78L534.02 551.15L534.20 547.42L534.04 543.59L533.39 539.77L530.76 539.60ZM511.20 539.39L514.26 538.78L511.18 538.61L507.24 538.56L503.23 538.65L499.17 538.86L495.05 539.17L490.88 539.50L486.65 539.80L482.36 540.14L478.03 540.50L473.66 540.90L469.26 541.36L464.83 541.89L460.40 542.51L455.96 543.25L451.54 544.11L447.13 545.09L442.74 546.16L438.39 547.30L434.06 548.48L429.75 549.67L425.48 550.84L421.24 551.96L417.02 553.03L412.82 554.04L408.67 555.02L404.55 555.97L400.48 556.94L396.47 557.94L392.54 559.02L388.71 560.19L387.30 560.66L388.61 560.80L392.62 561.16L396.71 561.42L400.86 561.54L405.06 561.49L409.30 561.26L413.58 560.85L417.87 560.29L422.17 559.59L426.48 558.80L430.80 557.94L435.12 557.06L439.46 556.17L443.82 555.29L448.20 554.42L452.60 553.56L457.00 552.69L461.40 551.79L465.78 550.85L470.14 549.84L474.45 548.78L478.72 547.65L482.95 546.47L487.12 545.28L491.24 544.08L495.32 542.98L499.37 541.98L503.37 541.05L507.32 540.19L511.20 539.39ZM221.02 540.93L224.13 540.96L228.11 541.08L232.17 541.27L236.28 541.51L240.46 541.70L244.70 541.82L249.01 541.92L253.36 542.01L257.77 542.08L262.21 542.18L266.68 542.33L271.17 542.56L275.67 542.89L280.16 543.35L284.65 543.94L289.11 544.67L293.55 545.51L297.95 546.44L302.31 547.44L306.62 548.47L310.89 549.52L315.11 550.57L319.28 551.62L323.40 552.67L327.47 553.76L331.47 554.89L335.39 556.09L339.22 557.39L342.96 558.80L343.93 559.20L343.01 559.28L338.99 559.57L334.90 559.78L330.75 559.89L326.54 559.86L322.30 559.67L318.01 559.32L313.70 558.81L309.37 558.18L305.03 557.45L300.66 556.67L296.28 555.86L291.89 555.05L287.47 554.26L283.04 553.50L278.59 552.77L274.15 552.04L269.70 551.31L265.28 550.54L260.88 549.73L256.52 548.85L252.20 547.92L247.94 546.92L243.73 545.89L239.58 544.85L235.48 543.88L231.43 543.00L227.44 542.18L223.53 541.41L221.02 540.93ZM370.25 567.73L372.54 567.95L376.31 568.20L380.18 568.36L384.14 568.46L388.19 568.51L392.32 568.54L396.52 568.57L400.79 568.60L405.12 568.66L409.52 568.74L413.97 568.80L418.48 568.84L423.04 568.81L427.63 568.66L432.25 568.37L436.87 567.91L441.48 567.26L446.06 566.43L450.60 565.43L455.09 564.28L459.53 563.04L463.93 561.74L468.29 560.42L472.61 559.12L476.91 557.87L481.18 556.68L485.42 555.55L489.62 554.47L493.78 553.42L497.86 552.30L501.87 551.10L505.81 549.84L509.67 548.52L513.44 547.13L517.13 545.69L520.72 544.21L524.21 542.70L526.14 541.84L525.82 542.82L524.80 546.02L523.79 549.08L522.81 552.06L521.86 554.97L520.90 557.85L520.16 559.82L520.08 559.59L516.05 560.43L511.93 561.19L507.78 561.99L503.68 562.96L499.54 563.83L495.25 564.18L490.82 563.99L486.26 563.63L481.51 563.58L476.62 564.03L471.69 564.81L466.76 565.61L461.81 566.31L456.87 567.06L452.02 568.01L447.25 569.04L442.46 569.82L437.60 570.10L432.67 570.03L427.70 570.09L422.75 570.69L417.90 571.85L413.18 573.16L408.52 574.22L403.92 574.96L399.38 575.56L394.88 576.36L390.34 577.28L385.76 578.10L381.30 579.06L381.91 582.56L386.33 581.96L390.84 581.69L395.48 581.64L400.17 581.32L404.85 580.52L409.52 579.57L414.23 578.85L418.98 578.48L423.74 578.21L428.49 577.71L433.30 576.87L438.18 575.92L443.14 575.10L448.15 574.42L453.13 573.64L458.01 572.56L462.74 571.35L467.43 570.43L472.11 570.16L476.75 570.51L481.40 571.01L486.13 571.20L490.93 570.92L495.72 570.35L500.42 569.69L505.01 568.91L509.38 567.70L513.44 566.02L517.30 564.17L518.72 563.48L517.38 566.19L515.79 568.78L513.96 571.25L511.96 573.61L509.84 575.93L507.63 578.23L505.36 580.58L503.00 582.96L500.52 585.36L497.89 587.70L495.06 589.92L492.03 591.93L488.79 593.69L485.37 595.19L481.82 596.47L478.19 597.59L474.52 598.61L470.86 599.60L467.21 600.59L463.58 601.58L459.93 602.52L456.27 603.33L452.56 603.93L448.84 604.26L445.10 604.28L441.39 604.02L437.72 603.54L434.08 602.93L430.46 602.28L426.85 601.66L423.23 601.12L419.61 600.63L416.00 600.15L412.42 599.61L408.93 598.92L405.54 598.03L402.27 596.92L399.15 595.58L396.16 594.06L393.30 592.44L390.56 590.76L387.91 589.06L385.35 587.34L382.88 585.55L380.51 583.66L378.23 581.64L376.17 579.38L374.37 576.85L372.85 574.09L371.55 571.16L370.39 568.07L370.25 567.73ZM203.90 544.13L204.12 546.54L204.48 549.70L204.96 552.81L205.66 555.87L206.65 558.84L208.00 561.69L209.63 564.39L211.58 566.91L213.78 569.23L216.15 571.43L218.61 573.57L221.10 575.72L223.62 577.89L226.16 580.10L228.77 582.30L231.50 584.43L234.36 586.42L236.48 587.68Q236.48 587.37 236.53 587.07Q236.77 585.52 238.05 584.59Q239.32 583.67 240.87 583.91Q242.43 584.16 243.35 585.43Q244.27 586.70 244.03 588.26Q243.79 589.75 242.60 590.67L243.88 591.21L247.26 592.46L250.68 593.64L252.92 594.41Q252.19 593.15 252.41 591.71Q252.72 589.75 254.45 588.77Q253.52 587.46 253.77 585.87Q254.39 581.95 258.31 582.57Q259.93 582.83 260.90 584.16Q261.86 585.49 261.60 587.11Q261.32 588.91 259.76 589.87Q260.82 591.26 260.55 592.99Q260.17 595.37 257.92 596.21L260.95 597.36L264.43 598.71L267.98 600.04L271.61 601.27L275.31 602.31L279.09 603.13L282.91 603.70L286.75 604.06L290.60 604.26L294.44 604.38L298.24 604.48L302.01 604.57L305.74 604.64L309.43 604.62L313.08 604.44L316.65 603.99L320.11 603.20L323.41 602.05L326.51 600.56L329.40 598.81L332.08 596.89L334.62 594.90L337.06 592.92L339.47 590.96L341.87 589.01L344.25 587.04L346.57 585.00L346.63 584.95L343.91 584.54L339.40 583.60L334.94 582.24L330.62 580.51L326.32 578.80L321.91 577.59L317.42 576.92L312.88 576.46L308.23 575.91L303.41 575.27L298.47 574.79L293.48 574.65L288.47 574.73L283.48 574.72L278.55 574.42L273.66 573.99L268.79 573.78L263.89 573.93L258.95 574.17L253.97 573.97L249.05 573.03L244.31 571.49L239.76 569.79L235.31 568.28L230.99 567.00L226.86 565.81L222.92 564.56L218.97 563.45L214.92 562.70L210.85 561.98L211.43 558.05L215.53 558.53L219.72 559.01L224.04 559.46L228.41 560.31L232.70 561.72L236.95 563.34L241.29 564.71L245.76 565.53L250.28 565.93L254.80 566.29L259.42 566.86L264.17 567.55L269.04 568.09L273.98 568.36L278.93 568.55L283.85 568.92L288.73 569.49L293.60 569.94L298.51 569.94L303.46 569.48L308.49 568.98L313.61 569.02L318.69 569.85L323.60 571.30L328.34 572.97L332.94 574.65L337.28 576.47L341.32 578.50L345.23 580.53L349.21 582.42L350.95 580.61L352.91 578.19L354.68 575.63L356.29 572.94L357.83 570.14L358.46 568.92L354.75 568.84L350.90 568.66L346.97 568.39L342.95 568.05L338.87 567.68L334.72 567.31L330.50 566.96L326.23 566.65L321.89 566.38L317.51 566.16L313.08 565.96L308.60 565.75L304.09 565.51L299.56 565.20L295.02 564.80L290.48 564.30L285.95 563.68L281.44 562.96L276.95 562.16L272.49 561.31L268.05 560.44L263.62 559.59L259.21 558.77L254.81 558.02L250.43 557.32L246.07 556.68L241.73 556.05L237.43 555.41L233.19 554.65L229.01 553.73L224.92 552.68L220.92 551.48L217.02 550.12L213.24 548.62L209.59 547.00L206.08 545.28L203.90 544.13ZM473.30 586.12Q473.58 587.90 475.04 588.96Q476.50 590.02 478.28 589.74Q480.07 589.46 481.13 588.00Q482.19 586.54 481.91 584.75Q481.22 580.45 476.92 581.13Q472.61 581.81 473.30 586.12ZM431.87 590.99Q430.29 591.24 429.00 590.30Q427.70 589.36 427.45 587.78Q427.20 586.20 428.14 584.90Q429.08 583.61 430.66 583.35Q434.48 582.75 435.08 586.57Q435.33 588.15 434.39 589.44Q433.45 590.74 431.87 590.99ZM453.66 591.85Q452.58 590.84 452.35 589.38Q452.07 587.62 453.12 586.18Q454.16 584.75 455.92 584.47Q456.55 584.37 457.17 584.45Q461.72 583.96 462.43 588.48Q463.19 593.22 458.44 593.98Q455.36 594.46 453.66 591.85ZM284.32 595.35Q285.76 595.58 286.93 594.72Q288.11 593.87 288.33 592.44Q288.56 591.00 287.71 589.83Q286.85 588.65 285.42 588.43Q283.99 588.20 282.81 589.05Q281.64 589.91 281.41 591.34Q281.18 592.77 282.04 593.95Q282.89 595.12 284.32 595.35Z"/></svg>