<?xml version="1.0" encoding="UTF-8"?>
<!-- Marie & Andre wedding doodle: The twirl
     TRACED from Marie's own artwork (ChatGPT Image Sep 2 2026, 09_06_46) with potrace.
     Filled outlines, NOT strokes — recolour by changing the single fill below.
     Do not add stroke to these. Minimum 35mm in print. -->
<svg xmlns="http://www.w3.org/2000/svg" viewBox="0 0 100 100" role="img" aria-label="The twirl">
  <path fill="#4A5A3D" fill-rule="evenodd" d="M72.75 98.84C70.41 98.14 70.44 98.17 69.54 96.4L68.77 94.88L68.35 96.13C68.07 96.96 67.76 97.37 67.42 97.37C66.98 97.37 66.87 97.02 66.73 95.14C66.55 92.82 66.78 91.88 67.77 90.74C68.23 90.22 68.35 89.57 68.41 87.09C68.45 85.42 68.59 83.44 68.71 82.68L68.94 81.29L67.22 81.89C66.13 82.27 65.01 82.45 64.18 82.38C63.13 82.29 62.63 82.43 61.7 83.05C61.05 83.49 59.08 84.6 57.31 85.52C54.26 87.12 54.07 87.27 53.57 88.56C53.22 89.43 53.04 90.62 53.06 91.9C53.1 95.33 51.97 96.08 50.43 93.65C49.17 91.66 48.95 90.63 49.44 89C49.94 87.34 49.88 87.25 48.68 87.87C47.89 88.28 47.67 88.29 47.36 87.96C46.71 87.3 49.94 83.97 51.5 83.69C52.46 83.52 53.17 83.04 54.96 81.34C56.2 80.16 57.13 79.1 57.02 79C56.91 78.89 56.14 78.85 55.31 78.91C51.09 79.22 50.02 78.94 48.88 77.22C48.38 76.46 47.81 76.03 46.97 75.78C45.67 75.39 44.88 74.52 44.88 73.47C44.88 72.7 45.99 71.93 48.22 71.13C49.43 70.7 50.02 70.19 51.81 68.04C54.65 64.63 56.32 61.26 57.61 56.35C58.29 53.76 59.12 51.49 60.13 49.47L61.64 46.45L60.82 44.5C60.37 43.42 59.86 42.18 59.69 41.74C59.28 40.71 59.22 40.72 58.24 42.11C57.35 43.37 56.77 43.57 56.32 42.76C56.06 42.3 55.98 42.31 55.27 42.97C54.35 43.84 53.5 43.51 53.52 42.29C53.53 41.41 53.44 41.36 52.8 41.94C52.55 42.16 51.98 42.44 51.54 42.55C49.78 42.99 50.08 40.76 52.14 38.06C52.72 37.31 52.87 36.79 52.82 35.79C52.76 34.77 52.97 34.1 53.82 32.59C54.76 30.92 54.86 30.52 54.71 29.31C54.62 28.55 54.45 26.78 54.35 25.38C54.17 22.85 54.17 22.83 55.25 20.92C56.45 18.76 57.74 17.73 59.8 17.29C62.6 16.68 63.27 16.77 65.2 18.01C65.7 18.32 65.89 18.3 66.45 17.84L67.12 17.29L65.82 14.81C64.47 12.23 61.63 7.82 61.21 7.65C61.07 7.6 60.96 7.2 60.96 6.77C60.96 5.8 59.77 3.22 59.06 2.63C58.54 2.21 58.54 2.22 59.05 3.01C59.64 3.91 59.47 4.38 58.78 3.81C58.42 3.51 58.33 3.51 58.33 3.82C58.33 4.05 58.05 3.93 57.62 3.52C56.83 2.79 55.21 2.84 54.55 3.63C54.3 3.94 54.53 3.92 55.54 3.55C56.77 3.11 56.89 3.11 57.36 3.58C58.01 4.23 57.69 4.53 56.82 4.08C56.28 3.8 56.34 3.93 57.1 4.69C58.21 5.79 58.19 6.21 56.99 6.47C56.52 6.57 56.31 6.67 56.52 6.69C57.68 6.79 59.8 8 59.8 8.56C59.8 9.12 59.76 9.12 59.26 8.67C58.97 8.4 58.58 8.19 58.39 8.19C58.21 8.19 57.48 7.91 56.77 7.56L55.49 6.94L53.91 7.79C52.72 8.43 52.36 8.77 52.42 9.22C52.47 9.58 51.93 10.49 51.04 11.56C50.24 12.52 48.61 14.49 47.42 15.94C44.89 19 41.99 21.8 37.1 25.88L33.59 28.8L33.24 31.73C32.77 35.7 32.8 37.15 33.49 42.25C34.06 46.47 34.06 47.95 33.5 47.95C33.34 47.95 33.34 48.35 33.48 48.9C34.15 51.45 34.94 62.3 34.94 68.83C34.94 72.36 34.26 77.43 33.01 83.19C32.77 84.31 32.39 86.2 32.17 87.39C31.71 89.95 31.29 90.5 30.17 90.08C29.44 89.8 29.38 89.84 29.35 90.58C29.29 91.91 29.39 92.17 30.72 94.47C32.81 98.05 32.39 99.04 29.24 97.95C26.83 97.13 26.3 96.71 25.72 95.19C25.4 94.34 25.04 93.86 24.72 93.86C24.45 93.86 23.87 93.48 23.42 93.01C22.5 92.06 22.54 91.63 23.72 89.59C24.57 88.14 24.58 87.83 23.83 87.63C23.11 87.45 23.07 86.48 23.69 84.21C24.15 82.54 25.4 73.15 25.4 71.35C25.41 69.59 24.92 63.14 24.8 63.26C24.62 63.44 23.05 70.37 22.79 72.08C22.49 74.1 17.73 88.86 17.01 89.98C16.83 90.27 16.59 90.25 15.91 89.9C15.09 89.47 15.04 89.48 14.8 90.12C14.5 90.93 15.01 92.79 16.24 95.39C17.25 97.52 17.31 98.12 16.57 98.51C16.15 98.74 15.49 98.53 13.65 97.62C11.44 96.52 11.21 96.32 10.5 94.85C10.07 93.99 9.55 93.27 9.34 93.27C8.9 93.27 7.75 91.91 7.75 91.38C7.75 91.19 8.3 90.2 8.98 89.2C10.07 87.57 10.15 87.34 9.71 87.09C9.06 86.73 9.08 85.87 9.77 84.06C10.98 80.87 12.62 72.85 13.75 64.62C14.65 58.01 15.86 50.73 16.23 49.62C16.44 48.99 16.4 48.77 16.06 48.64C15.7 48.5 15.64 47.86 15.69 45.07C15.73 43.2 15.73 40.75 15.68 39.62L15.6 37.57L14.89 39.62C14.23 41.54 12.95 46.49 12.11 50.4C11.9 51.34 11.56 52.28 11.36 52.49C11.11 52.73 11 53.5 11.04 54.64C11.12 56.61 10.72 57.37 9.95 56.74C9.56 56.41 9.5 56.52 9.5 57.66C9.5 60.24 8.31 60.51 6.58 58.33C5.68 57.21 5.65 57.09 5.84 55.26C5.94 54.22 6.02 52.79 6.01 52.1C5.95 48.9 7.78 39.42 9.65 33.22C12.45 23.93 12.08 24.55 16.45 21.78C18.77 20.3 19.15 19.95 19.15 19.26C19.15 18.83 19.31 18.42 19.51 18.35C20.02 18.18 18.94 15.86 18.26 15.64C17.71 15.46 16.85 14.32 16.65 13.5C16.59 13.23 16.39 12.42 16.21 11.7C16.04 10.97 15.97 9.87 16.07 9.25C16.26 8 17.57 5.56 18.04 5.56C18.2 5.56 18.88 5.19 19.55 4.74C21.36 3.52 21.5 3.5 24.38 4.16C27.03 4.77 27.84 5.4 26.45 5.77C26.12 5.85 25.9 6 25.95 6.1C26.01 6.2 26.36 6.94 26.74 7.75C27.11 8.55 27.8 9.69 28.26 10.28C29.24 11.52 29.29 11.86 28.56 12.26C28.11 12.49 28.04 12.81 28.15 14.12C28.24 15.21 28.14 15.97 27.81 16.6C27.52 17.17 27.45 17.58 27.63 17.69C27.79 17.79 27.92 18.13 27.92 18.45C27.92 18.96 28.05 19.01 29.02 18.83C29.62 18.72 30.42 18.52 30.79 18.38C31.17 18.24 31.8 18.13 32.19 18.13C32.59 18.13 33.21 17.95 33.56 17.73C33.92 17.52 35.53 16.6 37.13 15.69C39.32 14.47 41.23 13.01 44.66 9.95C47.2 7.69 49.46 5.85 49.7 5.85C49.94 5.85 50.33 5.47 50.57 5C51.15 3.88 53.56 1.78 54.51 1.58C54.92 1.49 55.54 1.29 55.87 1.12C56.8 0.68 59.32 1.61 60.35 2.79C60.82 3.32 61.42 4.53 61.69 5.46C61.96 6.4 62.89 8.3 63.77 9.7C66.92 14.71 69.15 18.83 69.15 19.65C69.15 20.11 69.61 22.75 70.18 25.52C70.74 28.29 71.2 31.3 71.2 32.22C71.2 33.13 71.33 33.97 71.5 34.07C72.05 34.41 72.95 36.53 72.95 37.49C72.95 38.02 72.71 38.85 72.42 39.33C72.04 39.95 71.82 41.09 71.68 43.23L71.48 46.25L73.67 50.46C74.87 52.77 76.48 55.62 77.24 56.79C78.97 59.44 84.63 65.18 86.4 66.08C87.13 66.45 88.02 66.98 88.4 67.27C88.77 67.56 89.82 67.96 90.73 68.14C95.22 69.07 95.31 69.39 92.03 72.83C89.52 75.47 88.55 76.02 86.46 76.02C84.31 76.02 83.45 76.45 81.76 78.38C79.93 80.46 78.54 81.23 76.2 81.48L74.48 81.66L74.29 82.84C74.19 83.48 73.64 85.57 73.09 87.46C71.6 92.53 71.78 93.7 74.44 96.25C75.62 97.38 75.9 97.83 75.82 98.47C75.71 99.48 75.13 99.55 72.75 98.84ZM74.1 97.4C73.7 96.86 73.29 96.61 72.96 96.7C71.73 97.02 69.38 94.7 68.46 92.26C68.11 91.32 67.69 92.3 67.72 94.01C67.74 94.99 67.81 95.25 67.94 94.79C68.04 94.42 68.23 94.13 68.35 94.13C68.47 94.14 68.69 94.15 68.85 94.15C69.01 94.15 69.59 94.86 70.14 95.73C70.94 96.97 71.41 97.4 72.42 97.75C74.5 98.49 74.85 98.41 74.1 97.4ZM15.94 96.86C15.94 96.58 15.56 95.56 15.11 94.59C14.65 93.63 14.19 92.47 14.08 92.03C13.97 91.59 13.73 91.23 13.55 91.23C13.37 91.23 12.59 90.77 11.8 90.2C11.02 89.64 10.33 89.18 10.26 89.18C10.2 89.18 9.87 89.64 9.54 90.21C8.87 91.34 8.96 91.97 9.82 92.2C10.14 92.28 10.64 92.91 10.95 93.62C11.61 95.09 12.39 95.88 14.04 96.74C15.48 97.49 15.94 97.52 15.94 96.86ZM29.52 94.3C28.65 92.6 27.92 91.52 27.65 91.52C27.4 91.52 26.67 91.19 26.02 90.8C24.52 89.87 24.52 89.87 24.13 91.07C23.74 92.23 23.89 92.6 25.23 93.71C25.76 94.15 26.38 94.88 26.61 95.33C27.08 96.23 30.24 97.61 30.83 97.17C30.89 97.12 30.31 95.82 29.52 94.3ZM71.98 94.08C71.44 92.84 71.16 92.53 70.52 92.45C69.61 92.34 69.55 92.57 70.22 93.58C71.87 96.04 72.97 96.36 71.98 94.08ZM51.34 91.1C51 90.75 50.73 90.24 50.73 89.97C50.73 89.35 50.27 89.32 50.03 89.93C49.94 90.18 50.29 91.2 50.81 92.19L51.75 94.01L51.85 92.88C51.92 92.05 51.78 91.57 51.34 91.1ZM72.41 86.63C73.02 84.25 73.52 82.11 73.53 81.86C73.54 81.4 71.48 80.76 70.56 80.93C70 81.04 69.58 83.28 69.29 87.74L69.1 90.55L70.08 90.84C70.61 91 71.11 91.09 71.17 91.04C71.24 90.98 71.79 89 72.41 86.63ZM28.22 90.2C28.22 89.96 28.25 89.69 28.29 89.59C28.35 89.46 25.73 88.31 25.37 88.3C25.33 88.3 25.29 88.56 25.29 88.88C25.29 89.25 25.69 89.67 26.39 90.04C27.72 90.74 28.22 90.79 28.22 90.2ZM13.88 89.77C14.16 89.26 14.02 89.11 12.74 88.46C11.03 87.6 10.96 87.58 10.96 88.14C10.96 88.45 13.03 90.24 13.51 90.34C13.55 90.35 13.71 90.09 13.88 89.77ZM52.96 88.4C53.33 87.48 53.61 86.72 53.57 86.71C53.54 86.7 53.2 86.52 52.82 86.31C52.44 86.1 52.08 85.98 52.01 86.05C51.67 86.39 51.4 89.37 51.66 89.86C52.03 90.55 52.13 90.43 52.96 88.4ZM17.24 87.23C17.65 86.32 18.2 84.84 18.45 83.94C18.7 83.04 19.49 80.51 20.2 78.31C20.91 76.11 21.49 74.08 21.49 73.8C21.49 73.52 21.62 72.88 21.77 72.39C21.92 71.9 22.53 69.19 23.11 66.37C24.49 59.76 24.85 58.38 25.21 58.26C25.47 58.18 25.72 60.33 26.34 68.32C26.56 71.08 25.36 82.68 24.52 85.88C24.39 86.38 24.67 86.61 26.24 87.35C28.52 88.41 30.25 89 30.46 88.79C30.74 88.5 31.35 85.67 33.51 74.62C34.06 71.82 34.08 71.17 33.79 65.26C33.28 54.94 32.81 48.81 32.46 48.25C32.39 48.14 31.18 48.22 29.76 48.43C28.35 48.64 24.94 48.82 22.19 48.82L17.18 48.83L17.01 50.07C16.91 50.76 16.16 55.53 15.34 60.67C14.53 65.82 13.74 70.95 13.59 72.08C13.23 74.77 11.71 81.54 10.93 83.87C10.59 84.9 10.43 85.83 10.57 85.97C10.85 86.25 15.97 88.85 16.28 88.87C16.39 88.88 16.82 88.14 17.24 87.23ZM51.08 85.67C51.22 85.3 51.28 84.95 51.22 84.89C50.98 84.66 50.16 85.17 49.73 85.82C49.3 86.49 49.31 86.51 50.06 86.43C50.55 86.37 50.92 86.1 51.08 85.67ZM61.34 82.3C61.83 81.97 61.8 81.93 61.05 81.74C60.6 81.63 59.74 81.15 59.13 80.67L58.03 79.79L55.24 82.37C53.01 84.42 52.56 84.96 53.04 85.03C53.36 85.08 53.71 85.38 53.81 85.69C53.97 86.21 54.27 86.11 57.4 84.45C59.28 83.46 61.06 82.49 61.34 82.3ZM67.85 80.52C69.53 79.84 69.99 79.78 71.44 79.99C72.35 80.12 74.09 80.23 75.29 80.23C77.81 80.24 78.8 79.83 80.3 78.17C82.87 75.33 82.76 75.38 86.55 74.99C88.29 74.8 88.32 74.79 90.69 72.32C92 70.96 92.92 69.79 92.73 69.73C92.55 69.67 91.41 69.33 90.2 68.97C89 68.62 87.35 67.96 86.55 67.51C81.51 64.69 75.84 57.95 72.8 51.17C72.05 49.48 71.17 47.74 70.86 47.3C70.36 46.6 70.33 46.37 70.64 45.26C70.84 44.57 71.09 43.02 71.22 41.81C71.34 40.61 71.61 39.05 71.82 38.35C72.18 37.2 72.16 36.99 71.6 36.01C69.78 32.82 68.72 31.28 68.24 31.13C67.6 30.93 67.5 30.41 68.1 30.41C68.33 30.41 68.88 30.84 69.32 31.36L70.12 32.31L69.91 29.82C69.73 27.67 69.08 23.81 68.35 20.53C68.23 20 68 19.53 67.84 19.5C67.68 19.47 67.56 19.3 67.58 19.12C67.62 18.76 66.6 18.93 66.36 19.32C66.27 19.46 66.48 20.1 66.81 20.75C67.35 21.82 67.38 22.17 67.14 24.78C66.99 26.35 66.93 27.73 67.01 27.85C67.08 27.97 67.18 28.76 67.24 29.6C67.29 30.45 67.43 31.75 67.55 32.51C67.74 33.73 67.69 33.95 67.01 34.63C66.15 35.48 64.64 35.64 63.73 34.96C63.21 34.58 63.27 34.55 64.5 34.6C65.28 34.62 66.05 34.48 66.33 34.25C66.86 33.81 67 31.73 66.52 31.44C66.37 31.34 65.83 30.66 65.33 29.93L64.41 28.61L65.09 27.89C65.61 27.34 65.79 26.75 65.88 25.28C65.95 24.24 66.12 23.39 66.26 23.39C66.71 23.39 66.54 22.11 65.98 21.26L65.44 20.45L64.64 23.6C63.21 29.18 62.1 31.74 60.56 33.02C60.3 33.23 60.09 33.52 60.09 33.66C60.09 34.06 61.19 33.96 61.36 33.55C61.44 33.35 61.51 34.35 61.53 35.77C61.55 38.31 61.53 38.38 60.64 39.21C60.01 39.8 59.81 40.18 60 40.43C60.15 40.63 60.83 42.11 61.52 43.73L62.76 46.67L61.73 48.41C60.2 50.98 59.3 53.38 58.8 56.29C58.16 59.95 55.38 65.63 52.65 68.86C50.91 70.91 50.38 71.33 48.32 72.3L45.97 73.4L46.52 74.02C46.83 74.36 47.5 74.82 48.01 75.04C48.52 75.25 49.28 75.88 49.7 76.43C50.8 77.87 51.8 78.19 54.52 77.96C57.11 77.74 58.06 78.02 59.15 79.3C60.8 81.24 64.68 81.79 67.85 80.52ZM8.93 55.48C9.27 54.27 9.98 54.02 10.17 55.04C10.24 55.41 10.23 55.04 10.16 54.24C10.08 53.44 9.9 52.62 9.75 52.44C9.56 52.2 9.65 52.04 10.04 51.92C10.35 51.82 10.67 51.44 10.75 51.09C11.94 45.46 14.94 36.16 16.06 34.63C16.44 34.1 16.81 39.15 16.81 45.07L16.81 47.6L20.25 47.8C23.61 48 28.21 47.66 30.33 47.06C30.85 46.91 31.66 46.78 32.13 46.78L32.98 46.78L32.78 43.35C32.68 41.46 32.51 38.99 32.41 37.87C32.31 36.74 32.4 34.13 32.6 32.08L32.97 28.33L35.05 26.33C36.2 25.23 38.12 23.54 39.33 22.58C42.03 20.42 46.33 15.99 49.37 12.22L51.66 9.38L50.71 8.2C50.18 7.55 49.7 7.02 49.63 7.02C49.57 7.02 47.91 8.4 45.95 10.09C44 11.78 41.34 13.95 40.06 14.91C37.62 16.74 32.73 19.29 31.63 19.31C31.28 19.32 30.34 19.5 29.53 19.71C28.16 20.06 28.05 20.16 27.77 21.29C27.33 23.07 26.94 23.35 25.91 22.59C24.77 21.74 23.38 21.87 21.97 22.94C20.67 23.93 20.05 23.76 19.67 22.27C19.36 21.08 19.12 21.1 16.98 22.5C14 24.44 13.14 25.53 12 28.81C10.12 34.25 8.92 38.85 8.04 44.06C7.09 49.76 6.95 51.75 7.53 51.76C7.79 51.76 7.8 51.82 7.56 51.98C7.15 52.24 6.29 54.75 6.29 55.67C6.29 56.24 6.41 56.33 7.02 56.21C7.58 56.1 7.75 56.2 7.77 56.62C7.79 57.12 7.81 57.12 8.04 56.58C8.24 56.11 8.3 56.22 8.36 57.16C8.41 58.13 8.44 58.18 8.53 57.46C8.58 56.97 8.77 56.09 8.93 55.48ZM52.24 41C51.99 40.92 52.1 40.58 52.6 39.93C53.55 38.68 54.87 35.4 54.67 34.77C54.58 34.5 54.85 33.39 55.25 32.31C55.66 31.23 55.98 29.93 55.96 29.42C55.93 28.59 55.91 28.61 55.69 29.71C55.56 30.37 55.05 31.8 54.55 32.9C53.9 34.33 53.69 35.15 53.82 35.79C53.95 36.52 53.75 37.06 52.8 38.53C51.53 40.5 51.24 41.64 52.11 41.31C52.43 41.18 52.48 41.08 52.24 41ZM58.71 39.37C58.53 38.43 58.04 38.34 58.04 39.25C58.03 39.62 57.95 40.24 57.85 40.64L57.67 41.37L58.26 40.76C58.67 40.34 58.81 39.91 58.71 39.37ZM54.31 39.77C54.47 39.77 54.52 39.96 54.43 40.2C54.33 40.45 54.36 40.64 54.5 40.64C54.79 40.64 55.41 38.63 55.41 37.68C55.41 37.29 55.81 35.94 56.3 34.67C56.96 32.96 57.23 31.66 57.36 29.64C57.54 26.97 57.53 26.89 56.77 26.13C56.01 25.37 55.79 24.19 55.93 21.64C55.96 20.96 55.94 20.95 55.64 21.48C55.19 22.27 55.01 25.92 55.36 27.34L55.64 28.51L55.67 27.21C55.71 25.63 56.05 25.93 56.55 27.97C56.81 29.07 56.83 29.78 56.61 30.58C56.44 31.18 56.37 31.77 56.45 31.9C56.53 32.02 56.45 32.21 56.29 32.31C56.13 32.41 55.99 32.84 55.99 33.28C55.99 34.11 55.06 37.31 54.5 38.39C54.32 38.74 53.76 39.49 53.25 40.04L52.34 41.04L53.18 40.4C53.65 40.05 54.15 39.77 54.31 39.77ZM56.54 40.59C56.7 40.84 56.85 40.42 56.97 39.37C57.08 38.49 57.25 37.53 57.35 37.23C57.5 36.77 57.47 36.77 57.1 37.28C56.72 37.8 55.69 40.47 55.71 40.91C55.71 41.01 55.84 40.88 56 40.64C56.23 40.29 56.33 40.28 56.54 40.59ZM60.6 37.99C60.79 37.6 60.96 36.78 60.96 36.18C60.96 35.26 60.84 35.03 60.21 34.79C59.05 34.35 58.83 34.68 59 36.57C59.22 39.06 59.79 39.56 60.6 37.99ZM56.87 36.26C57.04 35.94 57.12 35.67 57.04 35.67C56.96 35.67 56.75 35.94 56.58 36.26C56.41 36.58 56.33 36.84 56.41 36.84C56.49 36.84 56.7 36.58 56.87 36.26ZM57.95 35.03C57.85 34.8 57.79 34.87 57.77 35.21C57.76 35.52 57.83 35.69 57.93 35.59C58.02 35.5 58.03 35.24 57.95 35.03ZM58.64 31.52C59.12 29.84 59.17 29.77 59.19 30.76C59.2 31.35 59.08 32.19 58.91 32.62C58.43 33.89 58.82 33.79 59.49 32.48C59.82 31.83 60.23 31.29 60.39 31.29C60.54 31.29 60.67 30.96 60.67 30.55C60.67 30 60.42 29.69 59.68 29.34C59.13 29.08 58.55 28.59 58.4 28.25C58.21 27.81 58.14 28.24 58.16 29.83C58.17 31.03 58.07 32.41 57.93 32.89C57.78 33.38 57.77 33.68 57.89 33.56C58.02 33.45 58.35 32.53 58.64 31.52ZM62.32 28.39C62.44 28.16 62.32 27.84 62.04 27.63C61.38 27.15 61.42 26.96 62.2 26.85C62.83 26.76 63.47 25.51 63.99 23.36C64.15 22.67 64.1 22.61 63.45 22.74C63.02 22.82 62.72 22.74 62.72 22.55C62.72 22.25 63.19 22.11 64.11 22.14C64.31 22.15 64.47 21.84 64.47 21.46C64.47 20.89 64.14 20.61 62.65 19.92L60.82 19.09L60.04 19.81C59.61 20.2 59.18 20.97 59.08 21.51C58.98 22.05 58.57 22.74 58.18 23.06C57.27 23.77 57.27 23.88 58.32 26.05C59.36 28.19 59.71 28.64 60.59 28.97C60.96 29.11 61.26 29.46 61.26 29.74C61.27 30.25 61.6 29.82 62.32 28.39ZM66.35 28.81C66.22 28.31 66.05 28.13 65.87 28.31C65.69 28.49 65.71 28.82 65.93 29.23C66.37 30.06 66.61 29.83 66.35 28.81ZM61.95 25.27C62.05 25.02 61.8 24.2 61.4 23.45C61 22.7 60.67 21.98 60.67 21.86C60.67 21.43 61.28 21.65 61.47 22.15C61.58 22.43 61.97 23.11 62.34 23.65C63.2 24.92 63.22 25.73 62.4 25.73C61.96 25.73 61.83 25.6 61.95 25.27ZM57.04 24.05C56.73 23.74 56.56 24.18 56.78 24.74C56.99 25.27 57.01 25.27 57.11 24.76C57.17 24.46 57.14 24.15 57.04 24.05ZM58.63 24C58.63 23.68 59.76 23.26 59.99 23.49C60.08 23.58 60.06 23.79 59.95 23.96C59.72 24.34 58.63 24.37 58.63 24ZM21.71 21.95C22.76 21.07 22.58 19.98 21.29 19.44C19.73 18.79 19.47 19.46 20.36 21.86C20.65 22.65 20.85 22.66 21.71 21.95ZM57.89 21.65C58.17 21.1 58.23 20.73 58.04 20.61C57.87 20.51 57.83 20.29 57.93 20.12C58.04 19.94 57.95 19.86 57.72 19.94C57.34 20.07 56.93 22.51 57.29 22.51C57.37 22.51 57.64 22.13 57.89 21.65ZM27.04 19.81C27.05 18.24 26.93 18.16 25.97 19.06C25.11 19.86 25.1 20.85 25.95 21.42C26.8 21.99 27.04 21.63 27.04 19.81ZM24.17 20.61C24.17 20.46 24.03 20.29 23.85 20.23C23.68 20.17 23.54 20.35 23.54 20.61C23.54 20.88 23.68 21.05 23.85 21C24.03 20.94 24.17 20.77 24.17 20.61ZM64.47 19.01C64.04 18.19 62.85 17.47 62.22 17.63C61.78 17.75 61.79 17.77 62.31 17.8C62.86 17.83 64.28 19.01 63.77 19.01C63.66 19.01 63.64 19.14 63.74 19.3C63.84 19.46 64.12 19.59 64.36 19.59C64.7 19.59 64.72 19.47 64.47 19.01ZM24.93 18.64C25.65 18.29 25.85 17.67 25.14 17.94C24.59 18.15 23.25 17.66 23.25 17.25C23.25 17.07 23.55 17.03 24.05 17.15C26.41 17.76 27.89 15.94 27.14 13.36C26.92 12.58 26.97 12.35 27.47 11.94L28.07 11.45L27.43 10.77C27.08 10.39 26.48 9.23 26.11 8.19L25.42 6.29L23.68 6.37C22.72 6.42 21.51 6.68 20.99 6.95C20.1 7.41 20.05 7.52 19.97 9.34C19.88 11.24 19.88 11.26 19.08 11.17C17.99 11.06 18.02 11.75 19.15 12.63C19.97 13.27 20 13.38 19.72 14.4C19.49 15.25 19.52 15.67 19.87 16.35C20.12 16.83 20.32 17.42 20.32 17.66C20.32 18.25 22.61 19.27 23.54 19.1C23.94 19.02 24.57 18.82 24.93 18.64ZM63.16 19.01C63.06 18.85 62.82 18.72 62.63 18.72C62.42 18.72 62.46 18.84 62.72 19.01C63.28 19.37 63.38 19.37 63.16 19.01ZM25.42 14.49C24.89 14.09 24.91 14.06 25.8 14.12C26.34 14.15 26.75 14.34 26.75 14.55C26.75 15.04 26.12 15.01 25.42 14.49ZM18.86 13.96C18.85 13.43 18.8 13.39 18.57 13.74C18.2 14.31 18.2 14.62 18.57 14.62C18.73 14.62 18.86 14.32 18.86 13.96ZM17.88 9.58C17.8 9.38 17.74 9.54 17.74 9.94C17.74 10.34 17.8 10.51 17.88 10.31C17.96 10.11 17.96 9.78 17.88 9.58ZM59.98 10.08C59.7 9.34 59.78 9.15 60.12 9.74C60.29 10.04 60.37 10.34 60.3 10.41C60.22 10.49 60.08 10.34 59.98 10.08ZM24.04 10.05C23.67 9.68 23.82 9.29 24.26 9.46C24.5 9.55 24.82 9.4 24.97 9.13C25.12 8.85 25.35 8.73 25.48 8.86C25.61 8.99 25.57 9.32 25.4 9.59C25.05 10.14 24.36 10.37 24.04 10.05ZM19.24 9.14C19.45 8.02 19.28 7.98 18.91 9.05C18.74 9.54 18.71 9.94 18.84 9.94C18.97 9.94 19.15 9.58 19.24 9.14ZM18.56 6.5C18.54 6.06 17.4 7.69 17.4 8.15C17.4 8.43 17.64 8.24 17.98 7.67C18.3 7.14 18.56 6.62 18.56 6.5ZM53.72 7.36C54.47 7 55.18 6.57 55.28 6.4C55.38 6.24 55.75 5.98 56.1 5.83C56.58 5.62 56.43 5.58 55.41 5.63C54.14 5.7 54.1 5.67 54.15 4.89C54.18 4.45 54.08 4.16 53.93 4.25C53.48 4.53 53.62 3.61 54.09 3.22C54.33 3.02 55.02 2.68 55.63 2.46C56.57 2.13 56.62 2.07 55.97 2.06C54.52 2.03 50.73 5.27 50.73 6.53C50.73 6.9 51.95 8.23 52.18 8.1C52.27 8.05 52.96 7.72 53.72 7.36ZM56.07 4.78C55.87 4.7 55.54 4.7 55.34 4.78C55.14 4.86 55.3 4.92 55.7 4.92C56.1 4.92 56.27 4.86 56.07 4.78Z"/>
</svg>
