<?xml version="1.0" encoding="UTF-8"?>
<!-- Marie & Andre wedding doodle: Leaning together
     TRACED from Marie's own artwork (ChatGPT Image Sep 2 2026, 09_06_46) with potrace.
     Filled outlines, NOT strokes — recolour by changing the single fill below.
     Do not add stroke to these. Minimum 35mm in print. -->
<svg xmlns="http://www.w3.org/2000/svg" viewBox="0 0 100 100" role="img" aria-label="Leaning together">
  <path fill="#4A5A3D" fill-rule="evenodd" d="M24.73 99.49C23.61 98.78 23.76 96.92 25.17 94.13C25.67 93.14 26.06 91.93 26.06 91.37C26.06 90.44 26 90.37 25.2 90.37C24.73 90.37 24.3 90.21 24.24 90.01C24.19 89.82 23.85 86.86 23.48 83.43C22.74 76.39 22.64 68.72 23.23 62.42L23.58 58.69L22.87 57.74C21.67 56.14 21.25 55.04 21.25 53.56C21.25 52.48 21.14 52.12 20.83 52.12C20.31 52.12 20.26 51.91 19.67 46.36C18.98 39.95 19.51 34.27 21.37 28.15C22.92 23.03 23.62 22.23 28.81 19.56C30.21 18.84 30.59 18.49 30.74 17.81C30.85 17.35 31.16 16.83 31.43 16.66C31.9 16.36 31.9 16.29 31.27 15.37C30.91 14.83 30.54 13.93 30.45 13.36C30.36 12.79 30.11 11.59 29.88 10.7C29.39 8.8 29.35 7.75 29.75 7.51C30.31 7.16 30.07 5.74 29.41 5.57C28.82 5.42 28.81 5.38 29.27 4.88C29.9 4.18 29.87 4.02 29.11 3.91C28.13 3.78 28.31 2.98 29.32 2.96C29.79 2.95 30.49 2.73 30.88 2.48C31.97 1.78 35.69 0.38 37.04 0.18C38.05 0.02 38.29 0.08 38.59 0.56C38.79 0.89 39.25 1.13 39.66 1.13C40.49 1.14 42.16 2.09 42.39 2.69C42.48 2.93 42.72 3.12 42.91 3.12C43.11 3.12 43.44 3.32 43.65 3.57C43.97 3.96 43.95 4.08 43.54 4.39C43.11 4.7 43.1 4.77 43.48 4.92C44.04 5.13 44.03 5.78 43.46 6.25C43.16 6.5 43.06 6.89 43.17 7.42C43.26 7.86 43.2 8.22 43.05 8.22C42.9 8.22 42.77 8.63 42.77 9.14C42.75 11.05 41.94 14.57 41.34 15.38C40.78 16.14 40.77 16.24 41.19 16.66C41.61 17.08 41.64 17.08 41.64 16.66C41.64 15.76 43.97 13.56 45.18 13.31C45.81 13.18 46.89 12.86 47.59 12.61C50.54 11.52 54.58 13.36 55.89 16.39C56.07 16.8 56.5 17.53 56.86 18.02C57.22 18.5 57.51 19.29 57.51 19.78C57.51 20.44 57.77 20.91 58.52 21.58C59.48 22.46 59.52 22.57 59.34 23.87C59.17 25.06 59.24 25.35 59.91 26.22C60.34 26.78 60.63 27.49 60.58 27.85C60.53 28.21 60.78 28.86 61.12 29.3C62.1 30.54 62.37 31.85 62.52 36.12C62.62 38.96 62.53 40.94 62.21 43.12L61.75 46.15L63.29 49.78C64.13 51.77 64.98 54.16 65.16 55.1C65.79 58.32 69.41 64.96 73 69.47C74.4 71.22 77.12 73.36 77.98 73.38C78.17 73.38 78.87 73.63 79.53 73.93C81.39 74.77 81.23 75.55 78.62 78.22C76.79 80.1 76.24 80.49 74.45 81.14C73.03 81.66 72.03 82.25 71.27 83.02C70.66 83.63 70.03 84.14 69.89 84.14C69.42 84.14 69.94 85.85 70.65 86.71C71.03 87.16 71.42 87.94 71.52 88.45C71.62 88.96 71.91 90.06 72.16 90.89C72.55 92.19 72.56 92.44 72.21 92.66C71.94 92.84 71.67 92.74 71.35 92.36C70.91 91.83 70.89 91.87 70.76 93.2C70.59 94.92 68.78 97.52 67.85 97.39C67.31 97.31 67.28 97.1 67.28 93.48C67.27 90.54 67.17 89.46 66.82 88.81C65.71 86.71 65.28 86.13 64.92 86.26C64.71 86.34 64.16 86.4 63.69 86.4L62.84 86.4L63 88.17C63.08 89.15 63.23 90.58 63.32 91.36C63.4 92.14 63.31 93.73 63.11 94.9C62.8 96.72 62.67 97.03 62.18 97.03C61.73 97.03 61.6 96.81 61.53 95.96C61.42 94.68 61.1 94.61 60.62 95.76C60.1 97.02 59.14 97.64 56.92 98.14C53.52 98.92 52.88 97.92 55.27 95.6C57.34 93.59 58.07 91.92 58.07 89.13C58.07 87.29 58 86.94 57.66 87.07C56.94 87.34 56.46 86.51 56.25 84.65C56.15 83.67 55.94 82.42 55.8 81.87C55.66 81.32 55.28 79.82 54.96 78.52C54.64 77.22 53.44 73.78 52.29 70.87C50 65.06 48.98 61.06 50.87 65.3C55.25 75.13 56.14 77.8 57.06 83.85L57.38 85.98L58.32 85.9C58.83 85.86 59.63 85.63 60.1 85.39C60.75 85.05 61.39 84.99 62.74 85.14C65.76 85.46 68.58 84.25 71.29 81.46C71.82 80.91 72.48 80.45 72.75 80.45C73.92 80.45 76.74 78.78 77.44 77.68C77.83 77.06 78.48 76.3 78.88 75.99C79.68 75.35 79.79 75.07 79.23 75.07C79.03 75.07 77.85 74.58 76.61 73.98C73.8 72.62 72 70.66 68.84 65.51C67.62 63.52 66.23 61.28 65.75 60.53C65.19 59.64 64.74 58.39 64.46 56.94C63.91 54.03 63.12 51.72 61.72 48.93L60.57 46.65L61.04 43.42C61.49 40.32 61.91 33.53 61.58 34.7C60.6 38.2 58.47 44.02 57.31 46.41C56.83 47.38 55.44 49.08 53.36 51.22C51.59 53.04 50.14 54.57 50.14 54.62C50.14 54.67 49.6 55.39 48.94 56.22C47.9 57.52 46.11 58.75 45.4 58.64C45.06 58.59 44.82 59.76 44.79 61.66C44.76 63.29 44.27 68.36 43.64 73.51C43.49 74.76 43.04 77.5 42.65 79.6C42.25 81.71 41.73 84.7 41.48 86.26C41.23 87.82 40.98 89.37 40.91 89.71C40.82 90.17 40.56 90.36 39.87 90.42C38.59 90.54 38.57 91.29 39.78 93.2C41.45 95.84 41.73 96.49 41.53 97.28C41.36 97.99 41.27 98.02 39.3 98.01C37.02 98.01 36.02 97.64 35.49 96.59C35.29 96.21 35 95.93 34.84 95.97C34.68 96.01 34.17 95.84 33.7 95.6C32.72 95.09 32.66 94.6 33.31 92.07C33.86 89.9 33.72 89.45 32.51 89.57C31.48 89.67 31.46 89.76 31.88 92.99C32.1 94.69 31.64 95.75 30.7 95.75C30.49 95.75 29.99 96.27 29.59 96.9C28.42 98.76 25.79 100.17 24.73 99.49ZM26.92 97.91C27.47 97.65 28.22 96.95 28.61 96.33C28.99 95.71 29.66 95.06 30.09 94.88C30.9 94.54 31.08 93.84 30.7 92.43C30.54 91.84 30.49 91.83 29.73 92.22C29.29 92.45 28.41 92.63 27.78 92.63C26.98 92.63 26.63 92.76 26.63 93.03C26.63 93.25 26.31 94.11 25.92 94.94C25.07 96.77 24.96 98.91 25.75 98.47C25.84 98.42 26.37 98.17 26.92 97.91ZM58.43 96.72C58.71 96.63 59.41 95.84 60 94.95C61.22 93.1 61.94 92.77 62.12 93.96C62.18 94.4 62.25 93.93 62.27 92.92C62.3 91.23 62.27 91.12 61.89 91.64C59.77 94.53 58.89 95.31 57.46 95.57C56.87 95.68 55.24 96.94 55.24 97.29C55.24 97.39 57.67 96.96 58.43 96.72ZM40.51 96.53C40.51 96.33 40 95.44 39.38 94.54C38.75 93.65 38.24 92.77 38.24 92.6C38.24 92.39 37.88 92.34 37.18 92.45C36.49 92.56 35.82 92.47 35.32 92.21C34.45 91.76 34.42 91.78 34.18 93.56C34.04 94.54 34.08 94.62 34.73 94.62C35.22 94.62 35.59 94.88 35.92 95.45C36.18 95.92 36.65 96.42 36.97 96.57C37.83 96.99 40.51 96.96 40.51 96.53ZM69.24 94.64C69.44 94.24 69.69 93.53 69.79 93.06C69.97 92.21 69.97 92.21 69.51 92.85C69.26 93.2 68.89 93.48 68.7 93.48C68.37 93.48 67.99 94.67 67.99 95.68C67.99 96.26 68.74 95.64 69.24 94.64ZM59.25 93.27C61.28 91.14 61.76 90.14 61.76 88.04C61.76 86.98 61.72 86.12 61.69 86.12C61.65 86.13 61.04 86.3 60.34 86.51L59.07 86.89L59.03 89.12C59 90.71 58.81 91.76 58.39 92.73C57.5 94.77 57.7 94.9 59.25 93.27ZM69.15 89.72C69.24 88.44 69.22 87.2 69.1 86.97C68.97 86.74 68.8 86.19 68.71 85.76C68.55 84.99 68.53 84.99 67.71 85.41C67.26 85.64 66.67 85.84 66.42 85.84C66.02 85.84 66.06 86.02 66.66 87.04C67.05 87.71 67.6 89.24 67.88 90.44C68.51 93.17 68.91 92.94 69.15 89.72ZM29.37 91.44C30.04 91.2 30.31 90.93 30.31 90.5C30.31 89.93 30.22 89.91 28.97 90.11C28.23 90.23 27.48 90.34 27.31 90.35C27.12 90.36 27.05 90.67 27.13 91.08C27.28 91.88 27.89 91.98 29.37 91.44ZM37.91 90.72C37.99 90.15 37.88 90.08 36.87 90.08C36.25 90.08 35.54 90.01 35.29 89.91C34.96 89.78 34.84 89.92 34.84 90.46C34.84 91.26 35.29 91.47 36.83 91.4C37.62 91.37 37.84 91.23 37.91 90.72ZM70.7 88.8L70.29 87.68L70.27 88.9C70.26 89.64 70.37 90.05 70.54 89.94C70.69 89.85 70.83 89.94 70.84 90.14C70.86 90.34 70.92 90.38 70.99 90.21C71.06 90.05 70.93 89.41 70.7 88.8ZM29.63 88.92L31.63 88.61L31.97 84.46C32.15 82.18 32.43 78.14 32.59 75.5C32.98 68.83 34.1 60.34 34.59 60.34C34.96 60.34 34.89 65.52 34.41 72.8C34.19 76.31 33.91 81.29 33.81 83.88L33.63 88.58L35.01 88.78C35.78 88.89 37.17 89.05 38.1 89.14L39.8 89.29L40.46 85.51C40.83 83.43 41.49 79.82 41.93 77.48C42.38 75.14 43 70.74 43.31 67.71C44.19 59.24 44.25 58.36 43.91 58.36C43.71 58.36 43.67 57.87 43.79 56.96C43.97 55.65 43.94 55.57 43.31 55.48C42.39 55.35 42.33 54.52 43.12 52.97C43.48 52.27 43.73 51.38 43.69 50.99L43.6 50.28L35.89 50.28C31.66 50.28 27.75 50.22 27.21 50.14C26.36 50.02 26.22 50.09 26.07 50.7C25.97 51.11 26.1 51.79 26.41 52.39C27.31 54.15 26.81 55.93 25.67 54.99C25.36 54.73 25.26 55.05 25.1 56.71C25 57.82 24.81 58.88 24.67 59.04C24.54 59.21 24.29 62.41 24.13 66.15C23.82 73.04 23.95 76.07 24.95 86.12L25.28 89.39L26.45 89.31C27.09 89.26 28.52 89.09 29.63 88.92ZM47.72 55.98C47.97 56.08 48.29 55.81 48.55 55.3C48.79 54.84 50.04 53.4 51.33 52.09C56.22 47.13 57.26 45.43 59.63 38.53C61.03 34.44 61.35 32.4 60.79 31.1C60.14 29.57 59.4 29.27 58.66 30.21C58.34 30.62 58.07 31.13 58.07 31.35C58.07 31.56 57.95 31.96 57.81 32.23C57.66 32.5 57.34 33.68 57.1 34.84C56.85 36.01 56.18 38.56 55.6 40.51C54.59 43.88 54.43 44.2 52.21 47.17C49.95 50.19 49.52 50.87 49.18 51.91C49.09 52.21 48.74 52.41 48.3 52.41C47.4 52.41 46.16 53.18 46.34 53.64C46.41 53.83 46.09 54.21 45.61 54.48C45.14 54.76 44.76 55.11 44.76 55.26C44.76 55.41 45.01 55.37 45.31 55.18C46.02 54.74 46.38 55.08 45.86 55.7C45.51 56.12 45.54 56.15 46.11 55.97C46.75 55.77 47.01 56.18 46.46 56.52C46.3 56.61 46.18 56.83 46.18 57C46.18 57.16 46.44 56.97 46.75 56.57C47.07 56.16 47.51 55.9 47.72 55.98ZM23.41 56.07C23.2 55.01 23.82 55.05 24.11 56.11C24.26 56.63 24.31 56.49 24.34 55.52C24.38 53.83 24.63 52.97 25.08 52.97C25.29 52.97 25.54 53.24 25.64 53.56C25.75 53.89 25.89 54.09 25.96 54.02C26.03 53.95 25.81 53.33 25.48 52.64C24.92 51.5 24.79 51.39 23.98 51.49C21.89 51.73 21.95 51.67 22.05 53.41C22.12 54.51 22.32 55.18 22.69 55.55C22.99 55.85 23.23 56.28 23.23 56.52C23.23 56.75 23.31 56.94 23.41 56.94C23.5 56.94 23.51 56.55 23.41 56.07ZM44.59 53.92C44.93 54.05 45.04 53.97 44.98 53.62C44.93 53.32 45.31 52.91 46.03 52.49L47.17 51.83L45.9 51.91C44.75 51.98 44.57 52.09 43.99 53.12C43.29 54.36 43.12 55.09 43.73 54.26C43.97 53.93 44.29 53.8 44.59 53.92ZM24.22 50.68L25.07 50.43L24.98 46.09C24.92 42.99 25.02 41.03 25.35 39.22C25.6 37.83 25.93 35.92 26.09 34.99C26.59 32.03 27.01 32.38 26.77 35.55C26.65 37.11 26.48 40.76 26.38 43.66L26.2 48.93L29.77 49.27C32.52 49.54 34.35 49.54 37.84 49.28C44.72 48.77 44.04 48.7 44.14 49.93L44.23 50.99L46.03 50.99C48.15 50.99 47.92 51.48 48.58 45.61C49.28 39.34 48.73 31.8 47.05 24.82C46.76 23.61 45.54 22.22 43.78 21.06C43.15 20.65 42.29 20.07 41.86 19.78L41.09 19.25L40.66 20.29C40.42 20.85 40.23 21.47 40.23 21.65C40.23 22.83 38.5 22.98 37.67 21.87C36.93 20.87 35.44 20.83 33.92 21.77C32.35 22.74 31.66 22.52 31.35 20.96C31.22 20.26 31.07 19.65 31.02 19.6C30.86 19.43 27.92 21.03 26.35 22.13C24.41 23.49 23.74 24.47 22.83 27.28C20.44 34.62 19.98 40 21.02 48.49L21.35 51.22L22.36 51.08C22.92 51 23.75 50.82 24.22 50.68ZM52 46.04C52.94 44.79 53.86 43.26 54.04 42.63C54.23 42.01 54.76 40.23 55.23 38.67C55.7 37.11 56.27 34.94 56.49 33.85C57.02 31.32 57.4 30.33 58.14 29.53C58.47 29.18 58.64 28.8 58.52 28.68C58.25 28.42 57.03 29.87 56.49 31.09C55.98 32.25 52.38 34.12 51.78 33.54C51.58 33.36 51.01 33.12 50.51 33.01L49.6 32.82L49.73 34.82C49.8 35.93 49.91 37.7 49.98 38.77C50.05 39.84 49.92 42.48 49.7 44.65C49.18 49.79 49.18 49.92 49.8 49.01C50.07 48.63 51.05 47.29 52 46.04ZM43.97 44.33C43.93 42.46 43.84 40.04 43.76 38.95C43.65 37.42 43.68 37.12 43.91 37.65C44.09 38.06 44.17 40.18 44.12 43.03C44.05 47.14 44.03 47.3 43.97 44.33ZM43.69 33.99C43.69 33.45 43.75 33.23 43.82 33.5C43.89 33.77 43.89 34.22 43.82 34.49C43.75 34.76 43.69 34.54 43.69 33.99ZM52.91 32.61C53.18 32.48 53.87 32.16 54.45 31.91C55.1 31.64 55.68 31.11 55.97 30.53C56.23 30.02 56.7 29.32 57.02 28.97C57.34 28.62 57.55 28.29 57.48 28.24C57.42 28.2 56.81 27.92 56.14 27.62C54.96 27.11 54.11 26.05 54.11 25.08C54.11 24.56 53.78 24.52 53.32 24.98C52.63 25.67 52.68 24.94 53.41 23.55C54.23 21.97 54.21 20.38 53.34 19C53.1 18.63 52.81 17.99 52.7 17.59C52.53 16.94 52.36 16.85 51.25 16.84C50.56 16.83 49.19 16.49 48.21 16.08L46.41 15.35L45.44 17.37C44.39 19.57 44.26 20.43 44.89 20.95C45.22 21.23 45.42 21.18 45.92 20.71C46.26 20.39 46.65 20.2 46.77 20.27C47.14 20.5 46.72 21.25 46.23 21.25C45.92 21.25 46.11 21.58 46.82 22.31C47.39 22.9 47.95 23.8 48.05 24.31C48.29 25.52 49.03 25.88 50.82 25.67C52.15 25.51 52.22 25.53 51.72 25.92C51.41 26.15 51 26.35 50.8 26.35C50.55 26.35 50.42 26.73 50.42 27.48C50.42 28.3 50.27 28.7 49.86 28.96C48.68 29.7 49.29 32.29 50.65 32.3C51.07 32.3 51.61 32.43 51.84 32.58C52.36 32.92 52.31 32.91 52.91 32.61ZM49.58 27.64C49.58 26.73 49.17 26.09 48.81 26.45C48.57 26.69 49 28.61 49.3 28.61C49.45 28.61 49.58 28.17 49.58 27.64ZM59.49 27.46C59.49 27.3 59.16 26.69 58.75 26.12C58.34 25.54 58.1 25.33 58.21 25.64C58.32 25.95 58.54 26.55 58.7 26.98C58.97 27.74 59.49 28.06 59.49 27.46ZM56.85 24.75C55.44 21.5 54.89 19.55 55.42 19.55C55.9 19.55 56.43 20.78 56.2 21.38C56.11 21.61 56.43 22.38 56.91 23.09C57.4 23.81 57.79 24.52 57.79 24.68C57.79 24.83 57.92 24.88 58.07 24.79C58.7 24.4 58.37 22.97 57.51 22.33C56.83 21.83 56.66 21.49 56.66 20.66C56.66 20.05 56.42 19.33 56.09 18.9C55.78 18.51 55.41 17.89 55.26 17.52L54.99 16.86L54.98 17.51C54.97 17.87 54.84 18.38 54.7 18.65C54.53 18.96 54.59 19.52 54.86 20.26C55.6 22.25 55.61 22.38 55.17 22.38C54.93 22.38 54.67 22.64 54.59 22.96C54.42 23.6 55.45 26.35 55.86 26.35C56 26.35 55.98 26.1 55.82 25.8C55.66 25.5 55.53 24.89 55.53 24.45C55.54 23.68 55.55 23.67 55.99 24.22C56.23 24.53 56.68 25.35 56.98 26.03C57.28 26.72 57.59 27.21 57.67 27.12C57.76 27.04 57.39 25.97 56.85 24.75ZM49.71 24.07C49.62 23.92 49.77 23.71 50.05 23.6C50.34 23.49 50.72 23.21 50.9 22.96C51.29 22.44 51.64 22.67 51.41 23.29C51.19 23.86 49.93 24.43 49.71 24.07ZM48.41 21.88C48.24 21.46 47.83 20.57 47.51 19.91C47.18 19.26 47.01 18.62 47.13 18.5C47.42 18.21 48 19 48.64 20.57C49.03 21.51 49.27 21.77 49.65 21.65C50.32 21.44 50.28 22 49.59 22.37C48.82 22.78 48.75 22.76 48.41 21.88ZM39.79 20.06C40.26 18.49 40.35 17.56 40.03 17.56C39.93 17.56 39.29 17.83 38.62 18.16C37.53 18.68 37.41 18.83 37.57 19.5C37.75 20.27 38.72 21.53 39.13 21.53C39.25 21.53 39.55 20.87 39.79 20.06ZM33.44 20.81C33.9 20.58 34.28 20.2 34.28 19.99C34.28 19.77 34.34 19.42 34.42 19.21C34.59 18.79 32.37 17.2 31.97 17.45C31.64 17.65 31.67 18.89 32.03 20.18C32.36 21.4 32.33 21.39 33.44 20.81ZM45.11 20.06C45.25 19.64 45.89 19.4 45.89 19.78C45.89 19.93 45.69 20.13 45.44 20.22C45.17 20.33 45.04 20.27 45.11 20.06ZM36.42 19.81C36.52 19.64 36.46 19.35 36.28 19.17C35.93 18.82 35.32 19.45 35.59 19.89C35.79 20.21 36.19 20.17 36.42 19.81ZM43.63 19.41C43.63 19.17 43.46 19.06 43.23 19.15C42.6 19.39 42.42 18.29 42.9 17.14C43.14 16.57 43.75 15.71 44.26 15.23C44.92 14.61 45 14.46 44.54 14.7C43.68 15.15 42.3 17.1 42.06 18.17C41.92 18.81 42 19.12 42.4 19.42C43.08 19.93 43.63 19.93 43.63 19.41ZM49.58 18.84C49.28 18.49 49.32 18.41 49.77 18.41C50.07 18.41 50.46 18.26 50.65 18.07C50.92 17.81 50.99 17.83 50.99 18.16C50.99 18.59 50.46 19.26 50.12 19.26C50.01 19.26 49.77 19.07 49.58 18.84ZM34.94 17.28C34.77 16.43 34.78 16.43 36.11 16.43C37.41 16.43 37.45 16.46 37.27 17.15L37.09 17.87L38.18 17.31C40.13 16.32 41.07 14.43 41.79 10.06C42.46 5.96 42.3 5.06 40.69 4.12C40.02 3.73 39.04 3.33 38.51 3.24C37.97 3.15 37.25 2.93 36.91 2.77C36.37 2.51 35.91 2.69 33.74 3.99C32.05 5.01 31.14 5.74 31.03 6.16C30.79 7.1 31.4 12.94 31.84 13.98C32.05 14.47 32.56 15.19 32.98 15.57C33.62 16.17 33.67 16.3 33.27 16.44C32.91 16.56 33.04 16.76 33.9 17.35C34.5 17.76 35.01 18.1 35.05 18.11C35.08 18.12 35.04 17.75 34.94 17.28ZM49.47 17.71C49.56 17.47 49.75 17.28 49.88 17.28C50.01 17.28 50.05 17.47 49.96 17.71C49.87 17.94 49.69 18.13 49.55 18.13C49.42 18.13 49.38 17.94 49.47 17.71ZM54.3 17.16C54.2 16.91 53.99 16.71 53.83 16.71C53.51 16.71 53.43 17.64 53.73 17.95C54.05 18.26 54.48 17.64 54.3 17.16ZM36.47 17.68C36.37 17.58 36.13 17.57 35.92 17.65C35.7 17.74 35.77 17.81 36.1 17.82C36.39 17.84 36.56 17.77 36.47 17.68ZM44.73 16.58C45.09 15.73 45.09 15.73 44.5 16.27C44.17 16.56 43.91 17.06 43.91 17.38C43.91 18.07 44.22 17.76 44.73 16.58ZM53.72 15.05C52.1 13.39 48.48 12.68 47.15 13.76C46.85 14.01 46.79 14.11 47.02 13.99C47.69 13.64 50.99 13.87 51.88 14.32C52.32 14.56 52.69 14.93 52.69 15.16C52.69 15.73 52.32 15.69 51.21 15.02C50.1 14.34 49.46 14.25 50.39 14.91C50.91 15.27 50.97 15.42 50.67 15.63C50.42 15.79 50.98 15.85 52.18 15.81C53.22 15.77 54.17 15.83 54.28 15.94C54.39 16.05 54.55 16.15 54.64 16.15C54.72 16.15 54.31 15.65 53.72 15.05ZM35.27 14.16C35.17 14 35.49 13.88 36.08 13.88C36.62 13.88 37.3 13.79 37.58 13.69C38.04 13.51 38.06 13.55 37.71 13.97C37.29 14.49 35.56 14.63 35.27 14.16ZM35.19 11.95C34.9 11.76 34.89 11.08 35.17 8.4C35.62 4.11 36.16 4.06 36.01 8.31C35.91 11.27 35.92 11.33 36.53 11.33C37.38 11.33 37.12 12.02 36.24 12.11C35.86 12.15 35.39 12.08 35.19 11.95ZM30.22 8.29C30.15 8.02 30.09 8.17 30.08 8.64C30.08 9.11 30.14 9.33 30.21 9.14C30.29 8.95 30.3 8.57 30.22 8.29ZM38.69 8.05C38.15 7.52 38.39 6.9 38.95 7.36C39.16 7.54 39.67 7.59 40.13 7.48L40.93 7.29L40.18 7.89C39.28 8.62 39.26 8.62 38.69 8.05ZM32.45 7.78C32.15 7.55 31.96 7.35 32.03 7.34C32.61 7.2 34.28 7.21 34.28 7.35C34.28 7.65 33.62 8.22 33.3 8.21C33.14 8.2 32.76 8.01 32.45 7.78ZM32.68 3.42C32.62 3.35 32.28 3.59 31.93 3.95L31.3 4.61L32.05 4.08C32.47 3.78 32.75 3.48 32.68 3.42ZM41.78 3.4C41.69 3.24 41.39 3.12 41.13 3.12C40.72 3.12 40.71 3.16 41.08 3.4C41.63 3.76 42.01 3.76 41.78 3.4Z"/>
</svg>
