<?xml version="1.0" encoding="UTF-8"?>
<!-- Marie & Andre wedding doodle: Martini
     Monoline, no fill, one ink. Recolour via the stroke value below.
     Objects: stroke 1.9 on a 100x100 grid (~1.3pt at 25mm).
     Couple figures: stroke 1.5, and 35mm minimum. -->
<svg xmlns="http://www.w3.org/2000/svg" viewBox="0 0 100 100" role="img" aria-label="Martini">
  <g fill="none" stroke="#4A5A3D" stroke-width="1.9" stroke-linecap="round" stroke-linejoin="round"><path d="M21 29 L50 61 L79 29"/>
<path d="M19 27 Q50 21 81 27"/>
<path d="M29 36 Q50 33 71 36"/>
<path d="M50 61 L50 81"/>
<path d="M35 84 Q50 78 65 85"/>
<path d="M70 17 L57 38"/>
<path d="M57 38 q-6 0-6 5 q0 6 6 5 q7-1 7-6 q0-4-7-4z"/>
<path d="M55 42 q4-2 5 1"/>
<path d="M31 22 l1.5 0"/><path d="M42 24 l1.5 0"/>  </g>
</svg>
